<?xml version="1.0" encoding="utf-8" standalone="no"?>
<!DOCTYPE svg PUBLIC "-//W3C//DTD SVG 1.1//EN"
  "http://www.w3.org/Graphics/SVG/1.1/DTD/svg11.dtd">
<svg xmlns:xlink="http://www.w3.org/1999/xlink" width="460.8pt" height="345.6pt" viewBox="0 0 460.8 345.6" xmlns="http://www.w3.org/2000/svg" version="1.1">
 <metadata>
  <rdf:RDF xmlns:dc="http://purl.org/dc/elements/1.1/" xmlns:cc="http://creativecommons.org/ns#" xmlns:rdf="http://www.w3.org/1999/02/22-rdf-syntax-ns#">
   <cc:Work>
    <dc:type rdf:resource="http://purl.org/dc/dcmitype/StillImage"/>
    <dc:date>2024-02-11T19:41:25.492446</dc:date>
    <dc:format>image/svg+xml</dc:format>
    <dc:creator>
     <cc:Agent>
      <dc:title>Matplotlib v3.8.0, https://matplotlib.org/</dc:title>
     </cc:Agent>
    </dc:creator>
   </cc:Work>
  </rdf:RDF>
 </metadata>
 <defs>
  <style type="text/css">*{stroke-linejoin: round; stroke-linecap: butt}</style>
 </defs>
 <g id="figure_1">
  <g id="patch_1">
   <path d="M 0 345.6 
L 460.8 345.6 
L 460.8 0 
L 0 0 
z
" style="fill: #ffffff"/>
  </g>
  <g id="axes_1">
   <g id="patch_2">
    <path d="M 57.6 307.584 
L 414.72 307.584 
L 414.72 41.472 
L 57.6 41.472 
z
" style="fill: #ffffff"/>
   </g>
   <g id="PolyCollection_1">
    <defs>
     <path id="m45e961e5f0" d="M 73.832727 -70.82921 
L 73.832727 -52.040704 
L 75.136561 -56.333697 
L 76.440394 -60.771516 
L 77.744228 -63.603065 
L 79.048061 -64.529844 
L 80.351895 -64.222978 
L 81.655728 -66.706712 
L 82.959562 -66.268498 
L 84.263395 -65.282789 
L 85.567229 -66.923777 
L 86.871062 -67.547083 
L 88.174896 -69.437241 
L 89.478729 -72.069258 
L 90.782563 -75.180682 
L 92.086396 -78.308164 
L 93.39023 -81.198216 
L 94.694064 -85.233577 
L 95.997897 -85.783224 
L 97.301731 -89.584632 
L 98.605564 -92.721984 
L 99.909398 -95.847174 
L 101.213231 -97.388949 
L 102.517065 -99.874502 
L 103.820898 -98.821188 
L 105.124732 -99.989127 
L 106.428565 -100.493241 
L 107.732399 -98.22644 
L 109.036232 -98.398216 
L 110.340066 -99.313009 
L 111.643899 -96.101863 
L 112.947733 -95.864303 
L 114.251566 -96.204612 
L 115.5554 -95.046334 
L 116.859233 -96.144727 
L 118.163067 -97.049311 
L 119.4669 -99.505687 
L 120.770734 -99.215266 
L 122.074567 -99.827489 
L 123.378401 -104.858315 
L 124.682234 -106.70706 
L 125.986068 -108.908451 
L 127.289901 -108.135435 
L 128.593735 -109.566679 
L 129.897568 -111.826758 
L 131.201402 -113.336112 
L 132.505235 -112.376691 
L 133.809069 -110.93282 
L 135.112903 -110.256573 
L 136.416736 -109.7512 
L 137.72057 -108.243515 
L 139.024403 -107.379143 
L 140.328237 -107.142645 
L 141.63207 -108.335178 
L 142.935904 -110.010267 
L 144.239737 -108.43899 
L 145.543571 -110.095558 
L 146.847404 -108.96479 
L 148.151238 -109.946442 
L 149.455071 -112.015172 
L 150.758905 -113.568467 
L 152.062738 -112.292283 
L 153.366572 -110.151748 
L 154.670405 -111.154764 
L 155.974239 -110.693677 
L 157.278072 -108.252739 
L 158.581906 -108.424193 
L 159.885739 -112.693938 
L 161.189573 -113.466213 
L 162.493406 -113.581467 
L 163.79724 -113.211296 
L 165.101073 -115.62666 
L 166.404907 -119.328383 
L 167.70874 -121.767589 
L 169.012574 -124.22851 
L 170.316407 -124.224552 
L 171.620241 -125.459967 
L 172.924074 -129.241819 
L 174.227908 -134.256155 
L 175.531742 -137.819934 
L 176.835575 -139.296002 
L 178.139409 -138.285703 
L 179.443242 -140.498999 
L 180.747076 -142.813011 
L 182.050909 -145.131513 
L 183.354743 -144.200173 
L 184.658576 -146.284978 
L 185.96241 -137.773378 
L 187.266243 -135.09904 
L 188.570077 -130.18491 
L 189.87391 -124.527376 
L 191.177744 -123.364639 
L 192.481577 -125.464389 
L 193.785411 -112.060021 
L 195.089244 -112.962534 
L 196.393078 -111.542282 
L 197.696911 -110.323943 
L 199.000745 -120.091241 
L 200.304578 -123.246004 
L 201.608412 -125.041391 
L 202.912245 -127.137141 
L 204.216079 -122.48482 
L 205.519912 -115.463834 
L 206.823746 -122.329709 
L 208.127579 -118.284655 
L 209.431413 -109.218359 
L 210.735246 -102.115619 
L 212.03908 -99.016714 
L 213.342913 -98.484492 
L 214.646747 -99.362514 
L 215.950581 -97.204595 
L 217.254414 -99.377058 
L 218.558248 -101.893501 
L 219.862081 -101.54875 
L 221.165915 -102.042162 
L 222.469748 -101.358623 
L 223.773582 -103.577791 
L 225.077415 -102.685184 
L 226.381249 -98.593836 
L 227.685082 -98.680348 
L 228.988916 -101.55025 
L 230.292749 -103.056238 
L 231.596583 -100.904684 
L 232.900416 -100.726101 
L 234.20425 -102.714992 
L 235.508083 -102.977448 
L 236.811917 -108.304578 
L 238.11575 -112.576707 
L 239.419584 -116.707402 
L 240.723417 -121.003726 
L 242.027251 -127.315326 
L 243.331084 -133.13929 
L 244.634918 -138.532499 
L 245.938751 -143.58322 
L 247.242585 -145.553869 
L 248.546418 -149.378339 
L 249.850252 -144.996051 
L 251.154085 -147.559319 
L 252.457919 -147.706231 
L 253.761752 -148.938619 
L 255.065586 -148.70215 
L 256.369419 -146.486719 
L 257.673253 -148.322748 
L 258.977087 -147.577111 
L 260.28092 -148.542089 
L 261.584754 -154.53016 
L 262.888587 -154.870265 
L 264.192421 -152.574006 
L 265.496254 -154.071561 
L 266.800088 -153.36115 
L 268.103921 -151.990517 
L 269.407755 -155.712523 
L 270.711588 -152.668316 
L 272.015422 -151.510363 
L 273.319255 -150.059809 
L 274.623089 -150.245367 
L 275.926922 -149.180235 
L 277.230756 -149.143885 
L 278.534589 -145.169094 
L 279.838423 -149.260634 
L 281.142256 -147.672036 
L 282.44609 -149.703762 
L 283.749923 -147.578926 
L 285.053757 -149.623467 
L 286.35759 -146.308175 
L 287.661424 -145.040585 
L 288.965257 -143.949204 
L 290.269091 -145.248153 
L 291.572924 -144.606124 
L 292.876758 -142.983086 
L 294.180591 -138.810811 
L 295.484425 -136.549734 
L 296.788258 -138.64381 
L 298.092092 -136.847172 
L 299.395926 -137.966808 
L 300.699759 -139.620569 
L 302.003593 -143.49237 
L 303.307426 -144.916755 
L 304.61126 -147.173341 
L 305.915093 -151.061262 
L 307.218927 -143.946941 
L 308.52276 -141.326078 
L 309.826594 -134.993245 
L 311.130427 -135.416185 
L 312.434261 -130.832454 
L 313.738094 -131.999311 
L 315.041928 -132.459967 
L 316.345761 -133.637069 
L 317.649595 -136.390684 
L 318.953428 -136.308954 
L 320.257262 -139.640312 
L 321.561095 -140.271531 
L 322.864929 -142.777117 
L 324.168762 -139.638784 
L 325.472596 -140.320684 
L 326.776429 -143.302009 
L 328.080263 -144.636936 
L 329.384096 -146.990128 
L 330.68793 -147.923339 
L 331.991763 -146.310223 
L 333.295597 -142.826324 
L 334.59943 -149.112981 
L 335.903264 -151.116307 
L 337.207097 -153.072901 
L 338.510931 -154.105848 
L 339.814765 -154.417248 
L 341.118598 -160.901344 
L 342.422432 -162.851521 
L 343.726265 -164.569547 
L 345.030099 -162.47716 
L 346.333932 -173.292622 
L 347.637766 -176.866457 
L 348.941599 -178.797091 
L 350.245433 -177.852777 
L 351.549266 -181.910219 
L 352.8531 -183.360323 
L 354.156933 -185.372812 
L 355.460767 -188.314163 
L 356.7646 -187.104503 
L 358.068434 -185.177357 
L 359.372267 -190.44182 
L 360.676101 -191.929955 
L 361.979934 -195.958701 
L 363.283768 -199.879694 
L 364.587601 -193.872538 
L 365.891435 -195.452522 
L 367.195268 -199.206399 
L 368.499102 -201.734057 
L 369.802935 -198.740129 
L 371.106769 -197.933556 
L 372.410602 -196.083284 
L 373.714436 -197.091165 
L 375.018269 -197.432205 
L 376.322103 -199.970603 
L 377.625936 -201.300677 
L 378.92977 -202.067355 
L 380.233604 -204.956462 
L 381.537437 -205.117474 
L 382.841271 -203.275243 
L 384.145104 -203.65696 
L 385.448938 -205.408826 
L 386.752771 -206.290624 
L 388.056605 -203.509935 
L 389.360438 -208.071968 
L 390.664272 -212.685331 
L 391.968105 -204.506199 
L 393.271939 -206.129107 
L 394.575772 -210.227308 
L 395.879606 -208.26478 
L 397.183439 -207.218232 
L 398.487273 -205.14874 
L 398.487273 -281.195039 
L 398.487273 -281.195039 
L 397.183439 -278.319201 
L 395.879606 -277.392366 
L 394.575772 -275.06214 
L 393.271939 -281.00744 
L 391.968105 -280.446419 
L 390.664272 -280.09501 
L 389.360438 -280.08712 
L 388.056605 -282.839279 
L 386.752771 -285.38241 
L 385.448938 -288.94214 
L 384.145104 -290.63263 
L 382.841271 -290.62246 
L 381.537437 -291.264679 
L 380.233604 -289.573143 
L 378.92977 -288.355458 
L 377.625936 -289.713376 
L 376.322103 -292.032 
L 375.018269 -290.542871 
L 373.714436 -290.529003 
L 372.410602 -289.974334 
L 371.106769 -284.521316 
L 369.802935 -285.7531 
L 368.499102 -282.865669 
L 367.195268 -279.319262 
L 365.891435 -274.570477 
L 364.587601 -276.912776 
L 363.283768 -277.855334 
L 361.979934 -275.525746 
L 360.676101 -274.219533 
L 359.372267 -278.359199 
L 358.068434 -277.398469 
L 356.7646 -279.94147 
L 355.460767 -281.535141 
L 354.156933 -280.057561 
L 352.8531 -278.750812 
L 351.549266 -281.602148 
L 350.245433 -284.477201 
L 348.941599 -279.019481 
L 347.637766 -274.386704 
L 346.333932 -272.994771 
L 345.030099 -275.490826 
L 343.726265 -272.814704 
L 342.422432 -271.101683 
L 341.118598 -266.743082 
L 339.814765 -270.555485 
L 338.510931 -269.157783 
L 337.207097 -265.863371 
L 335.903264 -262.366458 
L 334.59943 -260.90981 
L 333.295597 -259.462667 
L 331.991763 -257.92475 
L 330.68793 -252.363003 
L 329.384096 -253.908598 
L 328.080263 -254.076268 
L 326.776429 -255.381902 
L 325.472596 -251.70206 
L 324.168762 -251.610974 
L 322.864929 -256.834486 
L 321.561095 -256.050725 
L 320.257262 -253.456293 
L 318.953428 -255.413292 
L 317.649595 -255.912819 
L 316.345761 -255.316318 
L 315.041928 -258.321217 
L 313.738094 -259.13374 
L 312.434261 -255.823898 
L 311.130427 -253.485432 
L 309.826594 -256.682926 
L 308.52276 -252.852663 
L 307.218927 -252.63054 
L 305.915093 -255.045126 
L 304.61126 -258.667875 
L 303.307426 -261.183167 
L 302.003593 -265.469627 
L 300.699759 -271.868745 
L 299.395926 -271.091434 
L 298.092092 -270.834898 
L 296.788258 -272.849309 
L 295.484425 -274.936788 
L 294.180591 -271.910744 
L 292.876758 -269.982436 
L 291.572924 -268.411692 
L 290.269091 -265.716064 
L 288.965257 -264.894049 
L 287.661424 -265.123091 
L 286.35759 -262.652466 
L 285.053757 -259.281129 
L 283.749923 -253.610346 
L 282.44609 -249.313873 
L 281.142256 -244.851882 
L 279.838423 -242.763538 
L 278.534589 -243.68374 
L 277.230756 -239.588147 
L 275.926922 -237.60738 
L 274.623089 -233.758182 
L 273.319255 -231.600221 
L 272.015422 -230.006493 
L 270.711588 -224.879301 
L 269.407755 -222.458994 
L 268.103921 -220.722415 
L 266.800088 -220.464022 
L 265.496254 -222.657553 
L 264.192421 -224.487636 
L 262.888587 -224.139706 
L 261.584754 -223.891864 
L 260.28092 -223.564223 
L 258.977087 -223.191558 
L 257.673253 -223.257694 
L 256.369419 -222.714426 
L 255.065586 -219.691527 
L 253.761752 -217.850581 
L 252.457919 -215.26341 
L 251.154085 -212.998875 
L 249.850252 -211.476984 
L 248.546418 -207.736533 
L 247.242585 -207.428107 
L 245.938751 -206.529368 
L 244.634918 -205.870723 
L 243.331084 -208.433121 
L 242.027251 -207.850445 
L 240.723417 -207.484128 
L 239.419584 -210.38233 
L 238.11575 -210.305124 
L 236.811917 -210.08119 
L 235.508083 -211.836654 
L 234.20425 -214.422904 
L 232.900416 -216.05085 
L 231.596583 -218.185736 
L 230.292749 -217.216386 
L 228.988916 -220.844916 
L 227.685082 -217.420305 
L 226.381249 -215.613028 
L 225.077415 -218.093942 
L 223.773582 -216.198176 
L 222.469748 -214.211814 
L 221.165915 -213.880993 
L 219.862081 -213.627949 
L 218.558248 -212.94402 
L 217.254414 -212.934585 
L 215.950581 -208.556577 
L 214.646747 -205.86357 
L 213.342913 -204.664144 
L 212.03908 -199.240558 
L 210.735246 -197.75595 
L 209.431413 -196.653652 
L 208.127579 -194.374667 
L 206.823746 -193.825073 
L 205.519912 -198.881238 
L 204.216079 -198.366647 
L 202.912245 -200.215249 
L 201.608412 -200.171093 
L 200.304578 -203.735344 
L 199.000745 -203.5386 
L 197.696911 -210.541501 
L 196.393078 -211.27265 
L 195.089244 -211.24804 
L 193.785411 -214.815197 
L 192.481577 -210.387396 
L 191.177744 -209.754398 
L 189.87391 -208.913203 
L 188.570077 -204.749575 
L 187.266243 -202.708866 
L 185.96241 -198.198515 
L 184.658576 -192.857246 
L 183.354743 -191.142324 
L 182.050909 -187.685435 
L 180.747076 -185.496772 
L 179.443242 -182.146094 
L 178.139409 -180.854718 
L 176.835575 -178.354458 
L 175.531742 -177.545016 
L 174.227908 -179.535777 
L 172.924074 -180.338811 
L 171.620241 -182.111332 
L 170.316407 -182.091554 
L 169.012574 -181.65698 
L 167.70874 -182.494689 
L 166.404907 -184.52502 
L 165.101073 -185.260425 
L 163.79724 -184.763746 
L 162.493406 -186.183236 
L 161.189573 -183.557777 
L 159.885739 -182.275091 
L 158.581906 -177.050633 
L 157.278072 -177.028355 
L 155.974239 -177.252612 
L 154.670405 -174.56422 
L 153.366572 -173.382846 
L 152.062738 -171.716906 
L 150.758905 -172.328798 
L 149.455071 -170.259804 
L 148.151238 -173.51765 
L 146.847404 -171.725744 
L 145.543571 -170.804588 
L 144.239737 -174.960453 
L 142.935904 -176.160699 
L 141.63207 -179.059843 
L 140.328237 -180.386637 
L 139.024403 -181.41021 
L 137.72057 -184.506946 
L 136.416736 -183.930804 
L 135.112903 -181.214196 
L 133.809069 -178.222541 
L 132.505235 -173.454554 
L 131.201402 -178.405064 
L 129.897568 -179.753808 
L 128.593735 -179.998595 
L 127.289901 -175.248058 
L 125.986068 -172.710997 
L 124.682234 -173.618629 
L 123.378401 -174.341779 
L 122.074567 -170.744974 
L 120.770734 -167.665966 
L 119.4669 -162.341183 
L 118.163067 -160.97739 
L 116.859233 -154.75138 
L 115.5554 -150.785297 
L 114.251566 -145.830965 
L 112.947733 -139.52443 
L 111.643899 -133.861219 
L 110.340066 -131.553539 
L 109.036232 -128.31174 
L 107.732399 -124.934339 
L 106.428565 -122.259772 
L 105.124732 -118.9029 
L 103.820898 -118.010448 
L 102.517065 -114.881589 
L 101.213231 -111.271133 
L 99.909398 -110.798538 
L 98.605564 -109.123388 
L 97.301731 -108.105504 
L 95.997897 -105.21997 
L 94.694064 -101.160772 
L 93.39023 -98.43381 
L 92.086396 -95.259217 
L 90.782563 -91.403314 
L 89.478729 -88.783645 
L 88.174896 -87.782558 
L 86.871062 -84.378597 
L 85.567229 -81.668292 
L 84.263395 -79.126538 
L 82.959562 -77.986754 
L 81.655728 -75.602243 
L 80.351895 -73.947333 
L 79.048061 -75.048496 
L 77.744228 -73.514142 
L 76.440394 -75.008735 
L 75.136561 -72.613183 
L 73.832727 -70.82921 
z
" style="stroke: #808080; stroke-opacity: 0.2"/>
    </defs>
    <g clip-path="url(#p44f7b6aa19)">
     <use xlink:href="#m45e961e5f0" x="0" y="345.6" style="fill: #808080; fill-opacity: 0.2; stroke: #808080; stroke-opacity: 0.2"/>
    </g>
   </g>
   <g id="matplotlib.axis_1">
    <g id="xtick_1">
     <g id="line2d_1">
      <defs>
       <path id="m37d1449075" d="M 0 0 
L 0 3.5 
" style="stroke: #000000; stroke-width: 0.8"/>
      </defs>
      <g>
       <use xlink:href="#m37d1449075" x="72.528894" y="307.584" style="stroke: #000000; stroke-width: 0.8"/>
      </g>
     </g>
     <g id="text_1">
      <!-- 0.00 -->
      <g transform="translate(61.396081 322.182437) scale(0.1 -0.1)">
       <defs>
        <path id="DejaVuSans-30" d="M 2034 4250 
Q 1547 4250 1301 3770 
Q 1056 3291 1056 2328 
Q 1056 1369 1301 889 
Q 1547 409 2034 409 
Q 2525 409 2770 889 
Q 3016 1369 3016 2328 
Q 3016 3291 2770 3770 
Q 2525 4250 2034 4250 
z
M 2034 4750 
Q 2819 4750 3233 4129 
Q 3647 3509 3647 2328 
Q 3647 1150 3233 529 
Q 2819 -91 2034 -91 
Q 1250 -91 836 529 
Q 422 1150 422 2328 
Q 422 3509 836 4129 
Q 1250 4750 2034 4750 
z
" transform="scale(0.015625)"/>
        <path id="DejaVuSans-2e" d="M 684 794 
L 1344 794 
L 1344 0 
L 684 0 
L 684 794 
z
" transform="scale(0.015625)"/>
       </defs>
       <use xlink:href="#DejaVuSans-30"/>
       <use xlink:href="#DejaVuSans-2e" x="63.623047"/>
       <use xlink:href="#DejaVuSans-30" x="95.410156"/>
       <use xlink:href="#DejaVuSans-30" x="159.033203"/>
      </g>
     </g>
    </g>
    <g id="xtick_2">
     <g id="line2d_2">
      <g>
       <use xlink:href="#m37d1449075" x="112.318735" y="307.584" style="stroke: #000000; stroke-width: 0.8"/>
      </g>
     </g>
     <g id="text_2">
      <!-- 0.25 -->
      <g transform="translate(101.185922 322.182437) scale(0.1 -0.1)">
       <defs>
        <path id="DejaVuSans-32" d="M 1228 531 
L 3431 531 
L 3431 0 
L 469 0 
L 469 531 
Q 828 903 1448 1529 
Q 2069 2156 2228 2338 
Q 2531 2678 2651 2914 
Q 2772 3150 2772 3378 
Q 2772 3750 2511 3984 
Q 2250 4219 1831 4219 
Q 1534 4219 1204 4116 
Q 875 4013 500 3803 
L 500 4441 
Q 881 4594 1212 4672 
Q 1544 4750 1819 4750 
Q 2544 4750 2975 4387 
Q 3406 4025 3406 3419 
Q 3406 3131 3298 2873 
Q 3191 2616 2906 2266 
Q 2828 2175 2409 1742 
Q 1991 1309 1228 531 
z
" transform="scale(0.015625)"/>
        <path id="DejaVuSans-35" d="M 691 4666 
L 3169 4666 
L 3169 4134 
L 1269 4134 
L 1269 2991 
Q 1406 3038 1543 3061 
Q 1681 3084 1819 3084 
Q 2600 3084 3056 2656 
Q 3513 2228 3513 1497 
Q 3513 744 3044 326 
Q 2575 -91 1722 -91 
Q 1428 -91 1123 -41 
Q 819 9 494 109 
L 494 744 
Q 775 591 1075 516 
Q 1375 441 1709 441 
Q 2250 441 2565 725 
Q 2881 1009 2881 1497 
Q 2881 1984 2565 2268 
Q 2250 2553 1709 2553 
Q 1456 2553 1204 2497 
Q 953 2441 691 2322 
L 691 4666 
z
" transform="scale(0.015625)"/>
       </defs>
       <use xlink:href="#DejaVuSans-30"/>
       <use xlink:href="#DejaVuSans-2e" x="63.623047"/>
       <use xlink:href="#DejaVuSans-32" x="95.410156"/>
       <use xlink:href="#DejaVuSans-35" x="159.033203"/>
      </g>
     </g>
    </g>
    <g id="xtick_3">
     <g id="line2d_3">
      <g>
       <use xlink:href="#m37d1449075" x="152.108576" y="307.584" style="stroke: #000000; stroke-width: 0.8"/>
      </g>
     </g>
     <g id="text_3">
      <!-- 0.50 -->
      <g transform="translate(140.975764 322.182437) scale(0.1 -0.1)">
       <use xlink:href="#DejaVuSans-30"/>
       <use xlink:href="#DejaVuSans-2e" x="63.623047"/>
       <use xlink:href="#DejaVuSans-35" x="95.410156"/>
       <use xlink:href="#DejaVuSans-30" x="159.033203"/>
      </g>
     </g>
    </g>
    <g id="xtick_4">
     <g id="line2d_4">
      <g>
       <use xlink:href="#m37d1449075" x="191.898417" y="307.584" style="stroke: #000000; stroke-width: 0.8"/>
      </g>
     </g>
     <g id="text_4">
      <!-- 0.75 -->
      <g transform="translate(180.765605 322.182437) scale(0.1 -0.1)">
       <defs>
        <path id="DejaVuSans-37" d="M 525 4666 
L 3525 4666 
L 3525 4397 
L 1831 0 
L 1172 0 
L 2766 4134 
L 525 4134 
L 525 4666 
z
" transform="scale(0.015625)"/>
       </defs>
       <use xlink:href="#DejaVuSans-30"/>
       <use xlink:href="#DejaVuSans-2e" x="63.623047"/>
       <use xlink:href="#DejaVuSans-37" x="95.410156"/>
       <use xlink:href="#DejaVuSans-35" x="159.033203"/>
      </g>
     </g>
    </g>
    <g id="xtick_5">
     <g id="line2d_5">
      <g>
       <use xlink:href="#m37d1449075" x="231.688258" y="307.584" style="stroke: #000000; stroke-width: 0.8"/>
      </g>
     </g>
     <g id="text_5">
      <!-- 1.00 -->
      <g transform="translate(220.555446 322.182437) scale(0.1 -0.1)">
       <defs>
        <path id="DejaVuSans-31" d="M 794 531 
L 1825 531 
L 1825 4091 
L 703 3866 
L 703 4441 
L 1819 4666 
L 2450 4666 
L 2450 531 
L 3481 531 
L 3481 0 
L 794 0 
L 794 531 
z
" transform="scale(0.015625)"/>
       </defs>
       <use xlink:href="#DejaVuSans-31"/>
       <use xlink:href="#DejaVuSans-2e" x="63.623047"/>
       <use xlink:href="#DejaVuSans-30" x="95.410156"/>
       <use xlink:href="#DejaVuSans-30" x="159.033203"/>
      </g>
     </g>
    </g>
    <g id="xtick_6">
     <g id="line2d_6">
      <g>
       <use xlink:href="#m37d1449075" x="271.4781" y="307.584" style="stroke: #000000; stroke-width: 0.8"/>
      </g>
     </g>
     <g id="text_6">
      <!-- 1.25 -->
      <g transform="translate(260.345287 322.182437) scale(0.1 -0.1)">
       <use xlink:href="#DejaVuSans-31"/>
       <use xlink:href="#DejaVuSans-2e" x="63.623047"/>
       <use xlink:href="#DejaVuSans-32" x="95.410156"/>
       <use xlink:href="#DejaVuSans-35" x="159.033203"/>
      </g>
     </g>
    </g>
    <g id="xtick_7">
     <g id="line2d_7">
      <g>
       <use xlink:href="#m37d1449075" x="311.267941" y="307.584" style="stroke: #000000; stroke-width: 0.8"/>
      </g>
     </g>
     <g id="text_7">
      <!-- 1.50 -->
      <g transform="translate(300.135128 322.182437) scale(0.1 -0.1)">
       <use xlink:href="#DejaVuSans-31"/>
       <use xlink:href="#DejaVuSans-2e" x="63.623047"/>
       <use xlink:href="#DejaVuSans-35" x="95.410156"/>
       <use xlink:href="#DejaVuSans-30" x="159.033203"/>
      </g>
     </g>
    </g>
    <g id="xtick_8">
     <g id="line2d_8">
      <g>
       <use xlink:href="#m37d1449075" x="351.057782" y="307.584" style="stroke: #000000; stroke-width: 0.8"/>
      </g>
     </g>
     <g id="text_8">
      <!-- 1.75 -->
      <g transform="translate(339.92497 322.182437) scale(0.1 -0.1)">
       <use xlink:href="#DejaVuSans-31"/>
       <use xlink:href="#DejaVuSans-2e" x="63.623047"/>
       <use xlink:href="#DejaVuSans-37" x="95.410156"/>
       <use xlink:href="#DejaVuSans-35" x="159.033203"/>
      </g>
     </g>
    </g>
    <g id="xtick_9">
     <g id="line2d_9">
      <g>
       <use xlink:href="#m37d1449075" x="390.847623" y="307.584" style="stroke: #000000; stroke-width: 0.8"/>
      </g>
     </g>
     <g id="text_9">
      <!-- 2.00 -->
      <g transform="translate(379.714811 322.182437) scale(0.1 -0.1)">
       <use xlink:href="#DejaVuSans-32"/>
       <use xlink:href="#DejaVuSans-2e" x="63.623047"/>
       <use xlink:href="#DejaVuSans-30" x="95.410156"/>
       <use xlink:href="#DejaVuSans-30" x="159.033203"/>
      </g>
     </g>
    </g>
    <g id="text_10">
     <!-- TimeSteps -->
     <g transform="translate(209.936562 335.860562) scale(0.1 -0.1)">
      <defs>
       <path id="DejaVuSans-54" d="M -19 4666 
L 3928 4666 
L 3928 4134 
L 2272 4134 
L 2272 0 
L 1638 0 
L 1638 4134 
L -19 4134 
L -19 4666 
z
" transform="scale(0.015625)"/>
       <path id="DejaVuSans-69" d="M 603 3500 
L 1178 3500 
L 1178 0 
L 603 0 
L 603 3500 
z
M 603 4863 
L 1178 4863 
L 1178 4134 
L 603 4134 
L 603 4863 
z
" transform="scale(0.015625)"/>
       <path id="DejaVuSans-6d" d="M 3328 2828 
Q 3544 3216 3844 3400 
Q 4144 3584 4550 3584 
Q 5097 3584 5394 3201 
Q 5691 2819 5691 2113 
L 5691 0 
L 5113 0 
L 5113 2094 
Q 5113 2597 4934 2840 
Q 4756 3084 4391 3084 
Q 3944 3084 3684 2787 
Q 3425 2491 3425 1978 
L 3425 0 
L 2847 0 
L 2847 2094 
Q 2847 2600 2669 2842 
Q 2491 3084 2119 3084 
Q 1678 3084 1418 2786 
Q 1159 2488 1159 1978 
L 1159 0 
L 581 0 
L 581 3500 
L 1159 3500 
L 1159 2956 
Q 1356 3278 1631 3431 
Q 1906 3584 2284 3584 
Q 2666 3584 2933 3390 
Q 3200 3197 3328 2828 
z
" transform="scale(0.015625)"/>
       <path id="DejaVuSans-65" d="M 3597 1894 
L 3597 1613 
L 953 1613 
Q 991 1019 1311 708 
Q 1631 397 2203 397 
Q 2534 397 2845 478 
Q 3156 559 3463 722 
L 3463 178 
Q 3153 47 2828 -22 
Q 2503 -91 2169 -91 
Q 1331 -91 842 396 
Q 353 884 353 1716 
Q 353 2575 817 3079 
Q 1281 3584 2069 3584 
Q 2775 3584 3186 3129 
Q 3597 2675 3597 1894 
z
M 3022 2063 
Q 3016 2534 2758 2815 
Q 2500 3097 2075 3097 
Q 1594 3097 1305 2825 
Q 1016 2553 972 2059 
L 3022 2063 
z
" transform="scale(0.015625)"/>
       <path id="DejaVuSans-53" d="M 3425 4513 
L 3425 3897 
Q 3066 4069 2747 4153 
Q 2428 4238 2131 4238 
Q 1616 4238 1336 4038 
Q 1056 3838 1056 3469 
Q 1056 3159 1242 3001 
Q 1428 2844 1947 2747 
L 2328 2669 
Q 3034 2534 3370 2195 
Q 3706 1856 3706 1288 
Q 3706 609 3251 259 
Q 2797 -91 1919 -91 
Q 1588 -91 1214 -16 
Q 841 59 441 206 
L 441 856 
Q 825 641 1194 531 
Q 1563 422 1919 422 
Q 2459 422 2753 634 
Q 3047 847 3047 1241 
Q 3047 1584 2836 1778 
Q 2625 1972 2144 2069 
L 1759 2144 
Q 1053 2284 737 2584 
Q 422 2884 422 3419 
Q 422 4038 858 4394 
Q 1294 4750 2059 4750 
Q 2388 4750 2728 4690 
Q 3069 4631 3425 4513 
z
" transform="scale(0.015625)"/>
       <path id="DejaVuSans-74" d="M 1172 4494 
L 1172 3500 
L 2356 3500 
L 2356 3053 
L 1172 3053 
L 1172 1153 
Q 1172 725 1289 603 
Q 1406 481 1766 481 
L 2356 481 
L 2356 0 
L 1766 0 
Q 1100 0 847 248 
Q 594 497 594 1153 
L 594 3053 
L 172 3053 
L 172 3500 
L 594 3500 
L 594 4494 
L 1172 4494 
z
" transform="scale(0.015625)"/>
       <path id="DejaVuSans-70" d="M 1159 525 
L 1159 -1331 
L 581 -1331 
L 581 3500 
L 1159 3500 
L 1159 2969 
Q 1341 3281 1617 3432 
Q 1894 3584 2278 3584 
Q 2916 3584 3314 3078 
Q 3713 2572 3713 1747 
Q 3713 922 3314 415 
Q 2916 -91 2278 -91 
Q 1894 -91 1617 61 
Q 1341 213 1159 525 
z
M 3116 1747 
Q 3116 2381 2855 2742 
Q 2594 3103 2138 3103 
Q 1681 3103 1420 2742 
Q 1159 2381 1159 1747 
Q 1159 1113 1420 752 
Q 1681 391 2138 391 
Q 2594 391 2855 752 
Q 3116 1113 3116 1747 
z
" transform="scale(0.015625)"/>
       <path id="DejaVuSans-73" d="M 2834 3397 
L 2834 2853 
Q 2591 2978 2328 3040 
Q 2066 3103 1784 3103 
Q 1356 3103 1142 2972 
Q 928 2841 928 2578 
Q 928 2378 1081 2264 
Q 1234 2150 1697 2047 
L 1894 2003 
Q 2506 1872 2764 1633 
Q 3022 1394 3022 966 
Q 3022 478 2636 193 
Q 2250 -91 1575 -91 
Q 1294 -91 989 -36 
Q 684 19 347 128 
L 347 722 
Q 666 556 975 473 
Q 1284 391 1588 391 
Q 1994 391 2212 530 
Q 2431 669 2431 922 
Q 2431 1156 2273 1281 
Q 2116 1406 1581 1522 
L 1381 1569 
Q 847 1681 609 1914 
Q 372 2147 372 2553 
Q 372 3047 722 3315 
Q 1072 3584 1716 3584 
Q 2034 3584 2315 3537 
Q 2597 3491 2834 3397 
z
" transform="scale(0.015625)"/>
      </defs>
      <use xlink:href="#DejaVuSans-54"/>
      <use xlink:href="#DejaVuSans-69" x="57.958984"/>
      <use xlink:href="#DejaVuSans-6d" x="85.742188"/>
      <use xlink:href="#DejaVuSans-65" x="183.154297"/>
      <use xlink:href="#DejaVuSans-53" x="244.677734"/>
      <use xlink:href="#DejaVuSans-74" x="308.154297"/>
      <use xlink:href="#DejaVuSans-65" x="347.363281"/>
      <use xlink:href="#DejaVuSans-70" x="408.886719"/>
      <use xlink:href="#DejaVuSans-73" x="472.363281"/>
     </g>
    </g>
    <g id="text_11">
     <!-- 1e6 -->
     <g transform="translate(395.841875 334.860562) scale(0.1 -0.1)">
      <defs>
       <path id="DejaVuSans-36" d="M 2113 2584 
Q 1688 2584 1439 2293 
Q 1191 2003 1191 1497 
Q 1191 994 1439 701 
Q 1688 409 2113 409 
Q 2538 409 2786 701 
Q 3034 994 3034 1497 
Q 3034 2003 2786 2293 
Q 2538 2584 2113 2584 
z
M 3366 4563 
L 3366 3988 
Q 3128 4100 2886 4159 
Q 2644 4219 2406 4219 
Q 1781 4219 1451 3797 
Q 1122 3375 1075 2522 
Q 1259 2794 1537 2939 
Q 1816 3084 2150 3084 
Q 2853 3084 3261 2657 
Q 3669 2231 3669 1497 
Q 3669 778 3244 343 
Q 2819 -91 2113 -91 
Q 1303 -91 875 529 
Q 447 1150 447 2328 
Q 447 3434 972 4092 
Q 1497 4750 2381 4750 
Q 2619 4750 2861 4703 
Q 3103 4656 3366 4563 
z
" transform="scale(0.015625)"/>
      </defs>
      <use xlink:href="#DejaVuSans-31"/>
      <use xlink:href="#DejaVuSans-65" x="63.623047"/>
      <use xlink:href="#DejaVuSans-36" x="125.146484"/>
     </g>
    </g>
   </g>
   <g id="matplotlib.axis_2">
    <g id="ytick_1">
     <g id="line2d_10">
      <defs>
       <path id="m0ee9cb3226" d="M 0 0 
L -3.5 0 
" style="stroke: #000000; stroke-width: 0.8"/>
      </defs>
      <g>
       <use xlink:href="#m0ee9cb3226" x="57.6" y="297.190399" style="stroke: #000000; stroke-width: 0.8"/>
      </g>
     </g>
     <g id="text_12">
      <!-- 0 -->
      <g transform="translate(44.2375 300.989618) scale(0.1 -0.1)">
       <use xlink:href="#DejaVuSans-30"/>
      </g>
     </g>
    </g>
    <g id="ytick_2">
     <g id="line2d_11">
      <g>
       <use xlink:href="#m0ee9cb3226" x="57.6" y="257.555267" style="stroke: #000000; stroke-width: 0.8"/>
      </g>
     </g>
     <g id="text_13">
      <!-- 2000 -->
      <g transform="translate(25.15 261.354486) scale(0.1 -0.1)">
       <use xlink:href="#DejaVuSans-32"/>
       <use xlink:href="#DejaVuSans-30" x="63.623047"/>
       <use xlink:href="#DejaVuSans-30" x="127.246094"/>
       <use xlink:href="#DejaVuSans-30" x="190.869141"/>
      </g>
     </g>
    </g>
    <g id="ytick_3">
     <g id="line2d_12">
      <g>
       <use xlink:href="#m0ee9cb3226" x="57.6" y="217.920136" style="stroke: #000000; stroke-width: 0.8"/>
      </g>
     </g>
     <g id="text_14">
      <!-- 4000 -->
      <g transform="translate(25.15 221.719354) scale(0.1 -0.1)">
       <defs>
        <path id="DejaVuSans-34" d="M 2419 4116 
L 825 1625 
L 2419 1625 
L 2419 4116 
z
M 2253 4666 
L 3047 4666 
L 3047 1625 
L 3713 1625 
L 3713 1100 
L 3047 1100 
L 3047 0 
L 2419 0 
L 2419 1100 
L 313 1100 
L 313 1709 
L 2253 4666 
z
" transform="scale(0.015625)"/>
       </defs>
       <use xlink:href="#DejaVuSans-34"/>
       <use xlink:href="#DejaVuSans-30" x="63.623047"/>
       <use xlink:href="#DejaVuSans-30" x="127.246094"/>
       <use xlink:href="#DejaVuSans-30" x="190.869141"/>
      </g>
     </g>
    </g>
    <g id="ytick_4">
     <g id="line2d_13">
      <g>
       <use xlink:href="#m0ee9cb3226" x="57.6" y="178.285004" style="stroke: #000000; stroke-width: 0.8"/>
      </g>
     </g>
     <g id="text_15">
      <!-- 6000 -->
      <g transform="translate(25.15 182.084223) scale(0.1 -0.1)">
       <use xlink:href="#DejaVuSans-36"/>
       <use xlink:href="#DejaVuSans-30" x="63.623047"/>
       <use xlink:href="#DejaVuSans-30" x="127.246094"/>
       <use xlink:href="#DejaVuSans-30" x="190.869141"/>
      </g>
     </g>
    </g>
    <g id="ytick_5">
     <g id="line2d_14">
      <g>
       <use xlink:href="#m0ee9cb3226" x="57.6" y="138.649872" style="stroke: #000000; stroke-width: 0.8"/>
      </g>
     </g>
     <g id="text_16">
      <!-- 8000 -->
      <g transform="translate(25.15 142.449091) scale(0.1 -0.1)">
       <defs>
        <path id="DejaVuSans-38" d="M 2034 2216 
Q 1584 2216 1326 1975 
Q 1069 1734 1069 1313 
Q 1069 891 1326 650 
Q 1584 409 2034 409 
Q 2484 409 2743 651 
Q 3003 894 3003 1313 
Q 3003 1734 2745 1975 
Q 2488 2216 2034 2216 
z
M 1403 2484 
Q 997 2584 770 2862 
Q 544 3141 544 3541 
Q 544 4100 942 4425 
Q 1341 4750 2034 4750 
Q 2731 4750 3128 4425 
Q 3525 4100 3525 3541 
Q 3525 3141 3298 2862 
Q 3072 2584 2669 2484 
Q 3125 2378 3379 2068 
Q 3634 1759 3634 1313 
Q 3634 634 3220 271 
Q 2806 -91 2034 -91 
Q 1263 -91 848 271 
Q 434 634 434 1313 
Q 434 1759 690 2068 
Q 947 2378 1403 2484 
z
M 1172 3481 
Q 1172 3119 1398 2916 
Q 1625 2713 2034 2713 
Q 2441 2713 2670 2916 
Q 2900 3119 2900 3481 
Q 2900 3844 2670 4047 
Q 2441 4250 2034 4250 
Q 1625 4250 1398 4047 
Q 1172 3844 1172 3481 
z
" transform="scale(0.015625)"/>
       </defs>
       <use xlink:href="#DejaVuSans-38"/>
       <use xlink:href="#DejaVuSans-30" x="63.623047"/>
       <use xlink:href="#DejaVuSans-30" x="127.246094"/>
       <use xlink:href="#DejaVuSans-30" x="190.869141"/>
      </g>
     </g>
    </g>
    <g id="ytick_6">
     <g id="line2d_15">
      <g>
       <use xlink:href="#m0ee9cb3226" x="57.6" y="99.01474" style="stroke: #000000; stroke-width: 0.8"/>
      </g>
     </g>
     <g id="text_17">
      <!-- 10000 -->
      <g transform="translate(18.7875 102.813959) scale(0.1 -0.1)">
       <use xlink:href="#DejaVuSans-31"/>
       <use xlink:href="#DejaVuSans-30" x="63.623047"/>
       <use xlink:href="#DejaVuSans-30" x="127.246094"/>
       <use xlink:href="#DejaVuSans-30" x="190.869141"/>
       <use xlink:href="#DejaVuSans-30" x="254.492188"/>
      </g>
     </g>
    </g>
    <g id="ytick_7">
     <g id="line2d_16">
      <g>
       <use xlink:href="#m0ee9cb3226" x="57.6" y="59.379609" style="stroke: #000000; stroke-width: 0.8"/>
      </g>
     </g>
     <g id="text_18">
      <!-- 12000 -->
      <g transform="translate(18.7875 63.178827) scale(0.1 -0.1)">
       <use xlink:href="#DejaVuSans-31"/>
       <use xlink:href="#DejaVuSans-32" x="63.623047"/>
       <use xlink:href="#DejaVuSans-30" x="127.246094"/>
       <use xlink:href="#DejaVuSans-30" x="190.869141"/>
       <use xlink:href="#DejaVuSans-30" x="254.492188"/>
      </g>
     </g>
    </g>
    <g id="text_19">
     <!-- Moving Mean Reward -->
     <g transform="translate(12.707812 228.0155) rotate(-90) scale(0.1 -0.1)">
      <defs>
       <path id="DejaVuSans-4d" d="M 628 4666 
L 1569 4666 
L 2759 1491 
L 3956 4666 
L 4897 4666 
L 4897 0 
L 4281 0 
L 4281 4097 
L 3078 897 
L 2444 897 
L 1241 4097 
L 1241 0 
L 628 0 
L 628 4666 
z
" transform="scale(0.015625)"/>
       <path id="DejaVuSans-6f" d="M 1959 3097 
Q 1497 3097 1228 2736 
Q 959 2375 959 1747 
Q 959 1119 1226 758 
Q 1494 397 1959 397 
Q 2419 397 2687 759 
Q 2956 1122 2956 1747 
Q 2956 2369 2687 2733 
Q 2419 3097 1959 3097 
z
M 1959 3584 
Q 2709 3584 3137 3096 
Q 3566 2609 3566 1747 
Q 3566 888 3137 398 
Q 2709 -91 1959 -91 
Q 1206 -91 779 398 
Q 353 888 353 1747 
Q 353 2609 779 3096 
Q 1206 3584 1959 3584 
z
" transform="scale(0.015625)"/>
       <path id="DejaVuSans-76" d="M 191 3500 
L 800 3500 
L 1894 563 
L 2988 3500 
L 3597 3500 
L 2284 0 
L 1503 0 
L 191 3500 
z
" transform="scale(0.015625)"/>
       <path id="DejaVuSans-6e" d="M 3513 2113 
L 3513 0 
L 2938 0 
L 2938 2094 
Q 2938 2591 2744 2837 
Q 2550 3084 2163 3084 
Q 1697 3084 1428 2787 
Q 1159 2491 1159 1978 
L 1159 0 
L 581 0 
L 581 3500 
L 1159 3500 
L 1159 2956 
Q 1366 3272 1645 3428 
Q 1925 3584 2291 3584 
Q 2894 3584 3203 3211 
Q 3513 2838 3513 2113 
z
" transform="scale(0.015625)"/>
       <path id="DejaVuSans-67" d="M 2906 1791 
Q 2906 2416 2648 2759 
Q 2391 3103 1925 3103 
Q 1463 3103 1205 2759 
Q 947 2416 947 1791 
Q 947 1169 1205 825 
Q 1463 481 1925 481 
Q 2391 481 2648 825 
Q 2906 1169 2906 1791 
z
M 3481 434 
Q 3481 -459 3084 -895 
Q 2688 -1331 1869 -1331 
Q 1566 -1331 1297 -1286 
Q 1028 -1241 775 -1147 
L 775 -588 
Q 1028 -725 1275 -790 
Q 1522 -856 1778 -856 
Q 2344 -856 2625 -561 
Q 2906 -266 2906 331 
L 2906 616 
Q 2728 306 2450 153 
Q 2172 0 1784 0 
Q 1141 0 747 490 
Q 353 981 353 1791 
Q 353 2603 747 3093 
Q 1141 3584 1784 3584 
Q 2172 3584 2450 3431 
Q 2728 3278 2906 2969 
L 2906 3500 
L 3481 3500 
L 3481 434 
z
" transform="scale(0.015625)"/>
       <path id="DejaVuSans-20" transform="scale(0.015625)"/>
       <path id="DejaVuSans-61" d="M 2194 1759 
Q 1497 1759 1228 1600 
Q 959 1441 959 1056 
Q 959 750 1161 570 
Q 1363 391 1709 391 
Q 2188 391 2477 730 
Q 2766 1069 2766 1631 
L 2766 1759 
L 2194 1759 
z
M 3341 1997 
L 3341 0 
L 2766 0 
L 2766 531 
Q 2569 213 2275 61 
Q 1981 -91 1556 -91 
Q 1019 -91 701 211 
Q 384 513 384 1019 
Q 384 1609 779 1909 
Q 1175 2209 1959 2209 
L 2766 2209 
L 2766 2266 
Q 2766 2663 2505 2880 
Q 2244 3097 1772 3097 
Q 1472 3097 1187 3025 
Q 903 2953 641 2809 
L 641 3341 
Q 956 3463 1253 3523 
Q 1550 3584 1831 3584 
Q 2591 3584 2966 3190 
Q 3341 2797 3341 1997 
z
" transform="scale(0.015625)"/>
       <path id="DejaVuSans-52" d="M 2841 2188 
Q 3044 2119 3236 1894 
Q 3428 1669 3622 1275 
L 4263 0 
L 3584 0 
L 2988 1197 
Q 2756 1666 2539 1819 
Q 2322 1972 1947 1972 
L 1259 1972 
L 1259 0 
L 628 0 
L 628 4666 
L 2053 4666 
Q 2853 4666 3247 4331 
Q 3641 3997 3641 3322 
Q 3641 2881 3436 2590 
Q 3231 2300 2841 2188 
z
M 1259 4147 
L 1259 2491 
L 2053 2491 
Q 2509 2491 2742 2702 
Q 2975 2913 2975 3322 
Q 2975 3731 2742 3939 
Q 2509 4147 2053 4147 
L 1259 4147 
z
" transform="scale(0.015625)"/>
       <path id="DejaVuSans-77" d="M 269 3500 
L 844 3500 
L 1563 769 
L 2278 3500 
L 2956 3500 
L 3675 769 
L 4391 3500 
L 4966 3500 
L 4050 0 
L 3372 0 
L 2619 2869 
L 1863 0 
L 1184 0 
L 269 3500 
z
" transform="scale(0.015625)"/>
       <path id="DejaVuSans-72" d="M 2631 2963 
Q 2534 3019 2420 3045 
Q 2306 3072 2169 3072 
Q 1681 3072 1420 2755 
Q 1159 2438 1159 1844 
L 1159 0 
L 581 0 
L 581 3500 
L 1159 3500 
L 1159 2956 
Q 1341 3275 1631 3429 
Q 1922 3584 2338 3584 
Q 2397 3584 2469 3576 
Q 2541 3569 2628 3553 
L 2631 2963 
z
" transform="scale(0.015625)"/>
       <path id="DejaVuSans-64" d="M 2906 2969 
L 2906 4863 
L 3481 4863 
L 3481 0 
L 2906 0 
L 2906 525 
Q 2725 213 2448 61 
Q 2172 -91 1784 -91 
Q 1150 -91 751 415 
Q 353 922 353 1747 
Q 353 2572 751 3078 
Q 1150 3584 1784 3584 
Q 2172 3584 2448 3432 
Q 2725 3281 2906 2969 
z
M 947 1747 
Q 947 1113 1208 752 
Q 1469 391 1925 391 
Q 2381 391 2643 752 
Q 2906 1113 2906 1747 
Q 2906 2381 2643 2742 
Q 2381 3103 1925 3103 
Q 1469 3103 1208 2742 
Q 947 2381 947 1747 
z
" transform="scale(0.015625)"/>
      </defs>
      <use xlink:href="#DejaVuSans-4d"/>
      <use xlink:href="#DejaVuSans-6f" x="86.279297"/>
      <use xlink:href="#DejaVuSans-76" x="147.460938"/>
      <use xlink:href="#DejaVuSans-69" x="206.640625"/>
      <use xlink:href="#DejaVuSans-6e" x="234.423828"/>
      <use xlink:href="#DejaVuSans-67" x="297.802734"/>
      <use xlink:href="#DejaVuSans-20" x="361.279297"/>
      <use xlink:href="#DejaVuSans-4d" x="393.066406"/>
      <use xlink:href="#DejaVuSans-65" x="479.345703"/>
      <use xlink:href="#DejaVuSans-61" x="540.869141"/>
      <use xlink:href="#DejaVuSans-6e" x="602.148438"/>
      <use xlink:href="#DejaVuSans-20" x="665.527344"/>
      <use xlink:href="#DejaVuSans-52" x="697.314453"/>
      <use xlink:href="#DejaVuSans-65" x="762.296875"/>
      <use xlink:href="#DejaVuSans-77" x="823.820312"/>
      <use xlink:href="#DejaVuSans-61" x="905.607422"/>
      <use xlink:href="#DejaVuSans-72" x="966.886719"/>
      <use xlink:href="#DejaVuSans-64" x="1006.25"/>
     </g>
    </g>
   </g>
   <g id="line2d_17">
    <path d="M 73.832727 284.165043 
L 75.136561 281.12656 
L 76.440394 277.709875 
L 77.744228 277.041396 
L 79.048061 275.81083 
L 80.351895 276.514845 
L 81.655728 274.445522 
L 82.959562 273.472374 
L 84.263395 273.395337 
L 85.567229 271.303966 
L 86.871062 269.63716 
L 88.174896 266.9901 
L 89.478729 265.173549 
L 90.782563 262.308002 
L 92.086396 258.816309 
L 93.39023 255.783987 
L 94.694064 252.402825 
L 95.997897 250.098403 
L 97.301731 246.754932 
L 98.605564 244.677314 
L 99.909398 242.277144 
L 101.213231 241.269959 
L 102.517065 238.221954 
L 105.124732 236.153987 
L 106.428565 234.223493 
L 107.732399 234.01961 
L 109.036232 232.245022 
L 110.340066 230.166726 
L 111.643899 230.618459 
L 112.947733 227.905633 
L 114.251566 224.582212 
L 115.5554 222.684184 
L 116.859233 220.151947 
L 118.163067 216.58665 
L 119.4669 214.676565 
L 120.770734 212.159384 
L 122.074567 210.313768 
L 123.378401 205.999953 
L 125.986068 204.790276 
L 127.289901 203.908253 
L 128.593735 200.817363 
L 129.897568 199.809717 
L 131.201402 199.729412 
L 132.505235 202.684378 
L 133.809069 201.02232 
L 136.416736 198.758998 
L 137.72057 199.224769 
L 139.024403 201.205323 
L 140.328237 201.835359 
L 141.63207 201.90249 
L 142.935904 202.514517 
L 145.543571 205.149927 
L 146.847404 205.254733 
L 148.151238 203.867954 
L 149.455071 204.462512 
L 150.758905 202.651368 
L 152.062738 203.595405 
L 153.366572 203.832703 
L 155.974239 201.626856 
L 157.278072 202.959453 
L 158.581906 202.862587 
L 159.885739 198.115485 
L 161.189573 197.088005 
L 162.493406 195.717648 
L 163.79724 196.612479 
L 166.404907 193.673299 
L 167.70874 193.468861 
L 169.012574 192.657255 
L 170.316407 192.441947 
L 171.620241 191.81435 
L 172.924074 190.809685 
L 174.227908 188.704034 
L 175.531742 187.917525 
L 176.835575 186.77477 
L 178.139409 186.02979 
L 179.443242 184.277454 
L 180.747076 181.445109 
L 182.050909 179.191526 
L 183.354743 177.928752 
L 184.658576 176.028888 
L 185.96241 177.614054 
L 187.266243 176.696047 
L 188.570077 178.132757 
L 189.87391 178.87971 
L 191.177744 179.040481 
L 192.481577 177.674108 
L 193.785411 182.162391 
L 195.089244 183.494713 
L 196.393078 184.192534 
L 197.696911 185.167278 
L 199.000745 183.785079 
L 200.304578 182.109326 
L 201.608412 182.993758 
L 202.912245 181.923805 
L 205.519912 188.427464 
L 206.823746 187.522609 
L 208.127579 189.270339 
L 209.431413 192.663995 
L 210.735246 195.664215 
L 212.03908 196.471364 
L 213.342913 194.025682 
L 214.646747 192.986958 
L 215.950581 192.719414 
L 217.254414 189.444179 
L 218.558248 188.181239 
L 219.862081 188.011651 
L 221.165915 187.638423 
L 222.469748 187.814782 
L 223.773582 185.712017 
L 225.077415 185.210437 
L 226.381249 188.496568 
L 227.685082 187.549674 
L 228.988916 184.402417 
L 230.292749 185.463688 
L 231.596583 186.05479 
L 232.900416 187.211525 
L 234.20425 187.031052 
L 235.508083 188.192949 
L 236.811917 186.407116 
L 239.419584 182.055134 
L 240.723417 181.356073 
L 243.331084 174.813795 
L 244.634918 173.398389 
L 245.938751 170.543706 
L 247.242585 169.109012 
L 248.546418 167.042564 
L 249.850252 167.363482 
L 251.154085 165.320903 
L 252.457919 164.11518 
L 253.761752 162.2054 
L 255.065586 161.403162 
L 256.369419 160.999428 
L 257.673253 159.809779 
L 258.977087 160.215666 
L 260.28092 159.546844 
L 261.584754 156.388988 
L 262.888587 156.095015 
L 264.192421 157.069179 
L 265.496254 157.235443 
L 266.800088 158.687414 
L 268.103921 159.243534 
L 269.407755 156.514242 
L 270.711588 156.826191 
L 272.015422 154.841572 
L 273.319255 154.769985 
L 274.623089 153.598225 
L 275.926922 152.206193 
L 277.230756 151.233984 
L 278.534589 151.173583 
L 279.838423 149.587914 
L 281.142256 149.338041 
L 282.44609 146.091182 
L 283.749923 145.005364 
L 285.053757 141.147702 
L 286.35759 141.119679 
L 287.661424 140.518162 
L 288.965257 141.178373 
L 291.572924 139.091092 
L 292.876758 139.117239 
L 294.180591 140.239222 
L 295.484425 139.856739 
L 296.788258 139.853441 
L 298.092092 141.758965 
L 299.395926 141.070879 
L 300.699759 139.855343 
L 302.003593 141.119002 
L 303.307426 142.550039 
L 304.61126 142.679392 
L 305.915093 142.546806 
L 307.218927 147.311259 
L 309.826594 149.761915 
L 311.130427 151.149192 
L 312.434261 152.271824 
L 313.738094 150.033474 
L 315.041928 150.209408 
L 316.345761 151.123307 
L 317.649595 149.448248 
L 318.953428 149.738877 
L 320.257262 149.051697 
L 322.864929 145.794199 
L 324.168762 149.975121 
L 325.472596 149.588628 
L 326.776429 146.258045 
L 328.080263 146.243398 
L 329.384096 145.150637 
L 330.68793 145.456829 
L 331.991763 143.482513 
L 333.295597 144.455505 
L 334.59943 140.588604 
L 335.903264 138.858618 
L 337.207097 136.131864 
L 338.510931 133.968184 
L 339.814765 133.113633 
L 341.118598 131.777787 
L 342.422432 128.623398 
L 343.726265 126.907875 
L 345.030099 126.616007 
L 346.333932 122.456303 
L 347.637766 119.973419 
L 348.941599 116.691714 
L 350.245433 114.435011 
L 351.549266 113.843816 
L 352.8531 114.544432 
L 354.156933 112.884814 
L 355.460767 110.675348 
L 356.7646 112.077014 
L 358.068434 114.312087 
L 359.372267 111.19949 
L 360.676101 112.525256 
L 361.979934 109.857776 
L 363.283768 106.732486 
L 364.587601 110.207343 
L 365.891435 110.588501 
L 367.195268 106.337169 
L 368.499102 103.300137 
L 369.802935 103.353386 
L 371.106769 104.372564 
L 372.410602 102.571191 
L 373.714436 101.789916 
L 375.018269 101.612462 
L 376.322103 99.598698 
L 377.625936 100.092973 
L 378.92977 100.388593 
L 380.233604 98.335197 
L 381.537437 97.408924 
L 382.841271 98.651149 
L 384.145104 98.455205 
L 385.448938 98.424517 
L 386.752771 99.763483 
L 388.056605 102.425393 
L 389.360438 101.520456 
L 390.664272 99.20983 
L 391.968105 103.123691 
L 393.271939 102.031727 
L 394.575772 102.955276 
L 395.879606 102.771427 
L 397.183439 102.831284 
L 398.487273 102.428111 
L 398.487273 102.428111 
" clip-path="url(#p44f7b6aa19)" style="fill: none; stroke: #808080; stroke-width: 1.5; stroke-linecap: square"/>
   </g>
   <g id="line2d_18">
    <path d="M 73.832727 295.488 
L 75.136561 292.761996 
L 76.440394 288.170098 
L 77.744228 285.965214 
L 79.048061 285.867728 
L 80.351895 284.299376 
L 81.655728 281.110684 
L 82.959562 279.176282 
L 84.263395 274.603528 
L 85.567229 271.199796 
L 86.871062 268.212088 
L 88.174896 265.470363 
L 89.478729 264.423084 
L 90.782563 262.70834 
L 92.086396 264.027575 
L 93.39023 264.259817 
L 94.694064 261.613663 
L 95.997897 256.93098 
L 97.301731 253.49612 
L 98.605564 253.021549 
L 99.909398 251.973656 
L 101.213231 246.213698 
L 102.517065 242.500859 
L 103.820898 244.817774 
L 105.124732 247.706343 
" clip-path="url(#p44f7b6aa19)" style="fill: none; stroke: #0000ff; stroke-width: 1.5; stroke-linecap: square"/>
   </g>
   <g id="line2d_19">
    <path d="M 106.428565 249.83425 
L 107.732399 250.337934 
L 109.036232 250.399521 
L 110.340066 253.081059 
L 111.643899 254.633203 
L 112.947733 252.676793 
L 114.251566 251.87212 
L 115.5554 249.802293 
L 116.859233 248.867118 
L 118.163067 247.731434 
L 119.4669 243.545378 
L 120.770734 243.432814 
L 122.074567 242.629283 
L 123.378401 238.469935 
L 124.682234 239.350128 
L 125.986068 232.022573 
L 127.289901 234.341422 
L 128.593735 232.545456 
L 129.897568 228.666423 
L 131.201402 230.56666 
L 132.505235 228.384504 
L 133.809069 231.043936 
L 135.112903 230.635621 
L 136.416736 227.283355 
L 137.72057 225.752739 
" clip-path="url(#p44f7b6aa19)" style="fill: none; stroke: #0000ff; stroke-width: 1.5; stroke-linecap: square"/>
   </g>
   <g id="line2d_20">
    <path d="M 139.024403 224.894749 
L 140.328237 228.953506 
L 141.63207 225.350343 
L 142.935904 220.165559 
L 144.239737 217.64984 
L 145.543571 214.207003 
L 146.847404 212.911914 
L 148.151238 210.356076 
L 149.455071 215.664084 
L 150.758905 213.846542 
L 152.062738 219.034806 
L 153.366572 218.396861 
L 154.670405 223.321532 
L 155.974239 229.129329 
L 157.278072 228.629499 
L 158.581906 229.475461 
L 159.885739 228.867256 
L 161.189573 227.929342 
L 162.493406 228.980069 
L 163.79724 226.307276 
L 165.101073 223.293177 
L 166.404907 218.523927 
L 167.70874 216.258508 
L 169.012574 212.789705 
L 170.316407 207.413409 
" clip-path="url(#p44f7b6aa19)" style="fill: none; stroke: #0000ff; stroke-width: 1.5; stroke-linecap: square"/>
   </g>
   <g id="line2d_21">
    <path d="M 171.620241 209.06319 
L 172.924074 205.946455 
L 174.227908 203.379333 
L 175.531742 199.056813 
L 176.835575 197.132157 
L 178.139409 198.470423 
L 179.443242 195.363168 
L 180.747076 191.951169 
L 182.050909 184.835581 
L 183.354743 182.155275 
L 184.658576 180.568384 
L 185.96241 167.80058 
L 187.266243 168.110368 
L 188.570077 169.395795 
L 189.87391 168.105533 
L 191.177744 168.785949 
L 192.481577 170.207826 
L 193.785411 169.352831 
L 195.089244 169.379253 
L 196.393078 172.467716 
L 197.696911 178.462859 
L 199.000745 180.276332 
L 200.304578 180.913982 
L 201.608412 181.21601 
L 202.912245 186.479825 
" clip-path="url(#p44f7b6aa19)" style="fill: none; stroke: #0000ff; stroke-width: 1.5; stroke-linecap: square"/>
   </g>
   <g id="line2d_22">
    <path d="M 204.216079 193.874096 
L 205.519912 203.340959 
L 206.823746 221.491875 
L 208.127579 224.841632 
L 209.431413 248.576778 
L 210.735246 263.316826 
L 212.03908 265.077472 
L 213.342913 259.631994 
L 214.646747 257.141796 
L 215.950581 262.104627 
L 217.254414 254.77189 
L 218.558248 253.636397 
L 219.862081 254.445863 
L 221.165915 250.582774 
L 222.469748 253.919616 
L 223.773582 250.862566 
L 225.077415 252.470766 
L 226.381249 253.187622 
L 227.685082 257.969127 
L 228.988916 257.782547 
L 230.292749 255.589824 
L 231.596583 253.312953 
L 232.900416 253.299649 
L 234.20425 250.736384 
L 235.508083 244.525967 
" clip-path="url(#p44f7b6aa19)" style="fill: none; stroke: #0000ff; stroke-width: 1.5; stroke-linecap: square"/>
   </g>
   <g id="line2d_23">
    <path d="M 236.811917 244.137661 
L 238.11575 237.912716 
L 239.419584 228.304298 
L 240.723417 218.310012 
L 242.027251 212.043308 
L 243.331084 203.885864 
L 244.634918 199.274931 
L 245.938751 189.384301 
L 247.242585 183.56085 
L 248.546418 175.584524 
L 249.850252 172.641377 
L 251.154085 166.170189 
L 252.457919 165.672835 
L 253.761752 163.857961 
L 255.065586 165.823471 
L 256.369419 167.812619 
L 257.673253 165.857369 
L 258.977087 165.248422 
L 260.28092 169.826926 
L 261.584754 164.910941 
L 262.888587 170.842568 
L 264.192421 171.532267 
L 265.496254 168.454136 
L 266.800088 166.810362 
L 268.103921 165.631304 
" clip-path="url(#p44f7b6aa19)" style="fill: none; stroke: #0000ff; stroke-width: 1.5; stroke-linecap: square"/>
   </g>
   <g id="line2d_24">
    <path d="M 269.407755 163.402071 
L 270.711588 168.729806 
L 272.015422 165.058637 
L 273.319255 162.844952 
L 274.623089 166.146493 
L 275.926922 169.71793 
L 277.230756 169.921468 
L 278.534589 172.473687 
L 279.838423 168.074033 
L 281.142256 170.319658 
L 282.44609 173.688034 
L 283.749923 175.87867 
L 285.053757 174.835003 
L 286.35759 178.698259 
L 287.661424 177.253155 
L 288.965257 180.150808 
L 290.269091 177.289766 
L 291.572924 178.491285 
L 292.876758 176.125325 
L 294.180591 179.524454 
L 295.484425 181.540257 
L 296.788258 175.600714 
L 298.092092 175.559286 
L 299.395926 180.529904 
L 300.699759 179.960401 
" clip-path="url(#p44f7b6aa19)" style="fill: none; stroke: #0000ff; stroke-width: 1.5; stroke-linecap: square"/>
   </g>
   <g id="line2d_25">
    <path d="M 302.003593 176.69594 
L 303.307426 175.224603 
L 304.61126 181.602201 
L 305.915093 179.47968 
L 307.218927 185.316564 
L 308.52276 187.434833 
L 309.826594 184.505861 
L 311.130427 183.773271 
L 312.434261 186.225605 
L 313.738094 185.021516 
L 315.041928 188.912029 
L 316.345761 191.829071 
L 317.649595 187.194809 
L 318.953428 185.945557 
L 320.257262 182.084103 
L 321.561095 175.142552 
L 322.864929 174.489048 
L 324.168762 173.513033 
L 325.472596 173.854767 
L 326.776429 169.642345 
L 328.080263 173.310214 
L 329.384096 171.962184 
L 330.68793 170.785991 
L 331.991763 173.343652 
L 333.295597 174.96352 
" clip-path="url(#p44f7b6aa19)" style="fill: none; stroke: #0000ff; stroke-width: 1.5; stroke-linecap: square"/>
   </g>
   <g id="line2d_26">
    <path d="M 334.59943 172.801979 
L 335.903264 172.602347 
L 337.207097 168.884056 
L 338.510931 166.328175 
L 339.814765 166.755679 
L 341.118598 167.597182 
L 342.422432 162.315593 
L 343.726265 156.442291 
L 345.030099 149.038563 
L 346.333932 149.166585 
L 347.637766 145.225103 
L 348.941599 135.974639 
L 350.245433 130.549957 
L 351.549266 132.62662 
L 352.8531 127.646406 
L 354.156933 127.78398 
L 355.460767 130.365832 
L 356.7646 132.575848 
L 358.068434 136.077837 
L 359.372267 129.919798 
L 360.676101 124.472623 
L 361.979934 120.796108 
L 363.283768 119.632361 
L 364.587601 128.278686 
L 365.891435 128.82682 
" clip-path="url(#p44f7b6aa19)" style="fill: none; stroke: #0000ff; stroke-width: 1.5; stroke-linecap: square"/>
   </g>
   <g id="line2d_27">
    <path d="M 367.195268 130.524928 
L 368.499102 137.374156 
L 369.802935 137.725739 
L 371.106769 139.055988 
L 372.410602 143.174528 
L 373.714436 144.512746 
L 375.018269 142.104979 
L 376.322103 133.727704 
L 377.625936 133.611315 
L 378.92977 126.026895 
L 380.233604 125.727016 
L 381.537437 121.013527 
L 382.841271 121.170224 
L 384.145104 131.28293 
L 385.448938 128.021097 
L 386.752771 127.047222 
L 388.056605 129.66869 
L 389.360438 124.699098 
L 390.664272 124.002432 
L 391.968105 125.014317 
L 393.271939 123.045897 
L 394.575772 115.996313 
L 395.879606 117.554053 
L 397.183439 112.459671 
L 398.487273 107.489108 
" clip-path="url(#p44f7b6aa19)" style="fill: none; stroke: #0000ff; stroke-width: 1.5; stroke-linecap: square"/>
   </g>
   <g id="patch_3">
    <path d="M 57.6 307.584 
L 57.6 41.472 
" style="fill: none; stroke: #000000; stroke-width: 0.8; stroke-linejoin: miter; stroke-linecap: square"/>
   </g>
   <g id="patch_4">
    <path d="M 414.72 307.584 
L 414.72 41.472 
" style="fill: none; stroke: #000000; stroke-width: 0.8; stroke-linejoin: miter; stroke-linecap: square"/>
   </g>
   <g id="patch_5">
    <path d="M 57.6 307.584 
L 414.72 307.584 
" style="fill: none; stroke: #000000; stroke-width: 0.8; stroke-linejoin: miter; stroke-linecap: square"/>
   </g>
   <g id="patch_6">
    <path d="M 57.6 41.472 
L 414.72 41.472 
" style="fill: none; stroke: #000000; stroke-width: 0.8; stroke-linejoin: miter; stroke-linecap: square"/>
   </g>
   <g id="legend_1">
    <g id="patch_7">
     <path d="M 244.930937 78.82825 
L 407.72 78.82825 
Q 409.72 78.82825 409.72 76.82825 
L 409.72 48.472 
Q 409.72 46.472 407.72 46.472 
L 244.930937 46.472 
Q 242.930937 46.472 242.930937 48.472 
L 242.930937 76.82825 
Q 242.930937 78.82825 244.930937 78.82825 
z
" style="fill: #ffffff; opacity: 0.8; stroke: #cccccc; stroke-linejoin: miter"/>
    </g>
    <g id="line2d_28">
     <path d="M 246.930937 54.570437 
L 256.930938 54.570437 
L 266.930938 54.570437 
" style="fill: none; stroke: #808080; stroke-width: 1.5; stroke-linecap: square"/>
    </g>
    <g id="text_20">
     <!-- Mean Performance -->
     <g transform="translate(274.930938 58.070437) scale(0.1 -0.1)">
      <defs>
       <path id="DejaVuSans-50" d="M 1259 4147 
L 1259 2394 
L 2053 2394 
Q 2494 2394 2734 2622 
Q 2975 2850 2975 3272 
Q 2975 3691 2734 3919 
Q 2494 4147 2053 4147 
L 1259 4147 
z
M 628 4666 
L 2053 4666 
Q 2838 4666 3239 4311 
Q 3641 3956 3641 3272 
Q 3641 2581 3239 2228 
Q 2838 1875 2053 1875 
L 1259 1875 
L 1259 0 
L 628 0 
L 628 4666 
z
" transform="scale(0.015625)"/>
       <path id="DejaVuSans-66" d="M 2375 4863 
L 2375 4384 
L 1825 4384 
Q 1516 4384 1395 4259 
Q 1275 4134 1275 3809 
L 1275 3500 
L 2222 3500 
L 2222 3053 
L 1275 3053 
L 1275 0 
L 697 0 
L 697 3053 
L 147 3053 
L 147 3500 
L 697 3500 
L 697 3744 
Q 697 4328 969 4595 
Q 1241 4863 1831 4863 
L 2375 4863 
z
" transform="scale(0.015625)"/>
       <path id="DejaVuSans-63" d="M 3122 3366 
L 3122 2828 
Q 2878 2963 2633 3030 
Q 2388 3097 2138 3097 
Q 1578 3097 1268 2742 
Q 959 2388 959 1747 
Q 959 1106 1268 751 
Q 1578 397 2138 397 
Q 2388 397 2633 464 
Q 2878 531 3122 666 
L 3122 134 
Q 2881 22 2623 -34 
Q 2366 -91 2075 -91 
Q 1284 -91 818 406 
Q 353 903 353 1747 
Q 353 2603 823 3093 
Q 1294 3584 2113 3584 
Q 2378 3584 2631 3529 
Q 2884 3475 3122 3366 
z
" transform="scale(0.015625)"/>
      </defs>
      <use xlink:href="#DejaVuSans-4d"/>
      <use xlink:href="#DejaVuSans-65" x="86.279297"/>
      <use xlink:href="#DejaVuSans-61" x="147.802734"/>
      <use xlink:href="#DejaVuSans-6e" x="209.082031"/>
      <use xlink:href="#DejaVuSans-20" x="272.460938"/>
      <use xlink:href="#DejaVuSans-50" x="304.248047"/>
      <use xlink:href="#DejaVuSans-65" x="360.925781"/>
      <use xlink:href="#DejaVuSans-72" x="422.449219"/>
      <use xlink:href="#DejaVuSans-66" x="463.5625"/>
      <use xlink:href="#DejaVuSans-6f" x="498.767578"/>
      <use xlink:href="#DejaVuSans-72" x="559.949219"/>
      <use xlink:href="#DejaVuSans-6d" x="599.3125"/>
      <use xlink:href="#DejaVuSans-61" x="696.724609"/>
      <use xlink:href="#DejaVuSans-6e" x="758.003906"/>
      <use xlink:href="#DejaVuSans-63" x="821.382812"/>
      <use xlink:href="#DejaVuSans-65" x="876.363281"/>
     </g>
    </g>
    <g id="line2d_29">
     <path d="M 246.930937 69.248562 
L 256.930938 69.248562 
L 266.930938 69.248562 
" style="fill: none; stroke: #0000ff; stroke-width: 1.5; stroke-linecap: square"/>
    </g>
    <g id="text_21">
     <!-- Bayesian Optimizer Trial 0 -->
     <g transform="translate(274.930938 72.748562) scale(0.1 -0.1)">
      <defs>
       <path id="DejaVuSans-42" d="M 1259 2228 
L 1259 519 
L 2272 519 
Q 2781 519 3026 730 
Q 3272 941 3272 1375 
Q 3272 1813 3026 2020 
Q 2781 2228 2272 2228 
L 1259 2228 
z
M 1259 4147 
L 1259 2741 
L 2194 2741 
Q 2656 2741 2882 2914 
Q 3109 3088 3109 3444 
Q 3109 3797 2882 3972 
Q 2656 4147 2194 4147 
L 1259 4147 
z
M 628 4666 
L 2241 4666 
Q 2963 4666 3353 4366 
Q 3744 4066 3744 3513 
Q 3744 3084 3544 2831 
Q 3344 2578 2956 2516 
Q 3422 2416 3680 2098 
Q 3938 1781 3938 1306 
Q 3938 681 3513 340 
Q 3088 0 2303 0 
L 628 0 
L 628 4666 
z
" transform="scale(0.015625)"/>
       <path id="DejaVuSans-79" d="M 2059 -325 
Q 1816 -950 1584 -1140 
Q 1353 -1331 966 -1331 
L 506 -1331 
L 506 -850 
L 844 -850 
Q 1081 -850 1212 -737 
Q 1344 -625 1503 -206 
L 1606 56 
L 191 3500 
L 800 3500 
L 1894 763 
L 2988 3500 
L 3597 3500 
L 2059 -325 
z
" transform="scale(0.015625)"/>
       <path id="DejaVuSans-4f" d="M 2522 4238 
Q 1834 4238 1429 3725 
Q 1025 3213 1025 2328 
Q 1025 1447 1429 934 
Q 1834 422 2522 422 
Q 3209 422 3611 934 
Q 4013 1447 4013 2328 
Q 4013 3213 3611 3725 
Q 3209 4238 2522 4238 
z
M 2522 4750 
Q 3503 4750 4090 4092 
Q 4678 3434 4678 2328 
Q 4678 1225 4090 567 
Q 3503 -91 2522 -91 
Q 1538 -91 948 565 
Q 359 1222 359 2328 
Q 359 3434 948 4092 
Q 1538 4750 2522 4750 
z
" transform="scale(0.015625)"/>
       <path id="DejaVuSans-7a" d="M 353 3500 
L 3084 3500 
L 3084 2975 
L 922 459 
L 3084 459 
L 3084 0 
L 275 0 
L 275 525 
L 2438 3041 
L 353 3041 
L 353 3500 
z
" transform="scale(0.015625)"/>
       <path id="DejaVuSans-6c" d="M 603 4863 
L 1178 4863 
L 1178 0 
L 603 0 
L 603 4863 
z
" transform="scale(0.015625)"/>
      </defs>
      <use xlink:href="#DejaVuSans-42"/>
      <use xlink:href="#DejaVuSans-61" x="68.603516"/>
      <use xlink:href="#DejaVuSans-79" x="129.882812"/>
      <use xlink:href="#DejaVuSans-65" x="189.0625"/>
      <use xlink:href="#DejaVuSans-73" x="250.585938"/>
      <use xlink:href="#DejaVuSans-69" x="302.685547"/>
      <use xlink:href="#DejaVuSans-61" x="330.46875"/>
      <use xlink:href="#DejaVuSans-6e" x="391.748047"/>
      <use xlink:href="#DejaVuSans-20" x="455.126953"/>
      <use xlink:href="#DejaVuSans-4f" x="486.914062"/>
      <use xlink:href="#DejaVuSans-70" x="565.625"/>
      <use xlink:href="#DejaVuSans-74" x="629.101562"/>
      <use xlink:href="#DejaVuSans-69" x="668.310547"/>
      <use xlink:href="#DejaVuSans-6d" x="696.09375"/>
      <use xlink:href="#DejaVuSans-69" x="793.505859"/>
      <use xlink:href="#DejaVuSans-7a" x="821.289062"/>
      <use xlink:href="#DejaVuSans-65" x="873.779297"/>
      <use xlink:href="#DejaVuSans-72" x="935.302734"/>
      <use xlink:href="#DejaVuSans-20" x="976.416016"/>
      <use xlink:href="#DejaVuSans-54" x="1008.203125"/>
      <use xlink:href="#DejaVuSans-72" x="1054.537109"/>
      <use xlink:href="#DejaVuSans-69" x="1095.650391"/>
      <use xlink:href="#DejaVuSans-61" x="1123.433594"/>
      <use xlink:href="#DejaVuSans-6c" x="1184.712891"/>
      <use xlink:href="#DejaVuSans-20" x="1212.496094"/>
      <use xlink:href="#DejaVuSans-30" x="1244.283203"/>
     </g>
    </g>
   </g>
  </g>
 </g>
 <defs>
  <clipPath id="p44f7b6aa19">
   <rect x="57.6" y="41.472" width="357.12" height="266.112"/>
  </clipPath>
 </defs>
</svg>
