<?xml version="1.0" encoding="utf-8" standalone="no"?>
<!DOCTYPE svg PUBLIC "-//W3C//DTD SVG 1.1//EN"
  "http://www.w3.org/Graphics/SVG/1.1/DTD/svg11.dtd">
<svg xmlns:xlink="http://www.w3.org/1999/xlink" width="460.8pt" height="345.6pt" viewBox="0 0 460.8 345.6" xmlns="http://www.w3.org/2000/svg" version="1.1">
 <metadata>
  <rdf:RDF xmlns:dc="http://purl.org/dc/elements/1.1/" xmlns:cc="http://creativecommons.org/ns#" xmlns:rdf="http://www.w3.org/1999/02/22-rdf-syntax-ns#">
   <cc:Work>
    <dc:type rdf:resource="http://purl.org/dc/dcmitype/StillImage"/>
    <dc:date>2024-02-12T12:24:04.566579</dc:date>
    <dc:format>image/svg+xml</dc:format>
    <dc:creator>
     <cc:Agent>
      <dc:title>Matplotlib v3.8.0, https://matplotlib.org/</dc:title>
     </cc:Agent>
    </dc:creator>
   </cc:Work>
  </rdf:RDF>
 </metadata>
 <defs>
  <style type="text/css">*{stroke-linejoin: round; stroke-linecap: butt}</style>
 </defs>
 <g id="figure_1">
  <g id="patch_1">
   <path d="M 0 345.6 
L 460.8 345.6 
L 460.8 0 
L 0 0 
z
" style="fill: #ffffff"/>
  </g>
  <g id="axes_1">
   <g id="patch_2">
    <path d="M 57.6 307.584 
L 414.72 307.584 
L 414.72 41.472 
L 57.6 41.472 
z
" style="fill: #ffffff"/>
   </g>
   <g id="PolyCollection_1">
    <defs>
     <path id="m2678e08a06" d="M 73.832727 -57.663373 
L 73.832727 -50.112 
L 76.515823 -55.613581 
L 79.198918 -62.275687 
L 81.882014 -64.052032 
L 84.565109 -68.682969 
L 87.248204 -69.384164 
L 89.9313 -73.397534 
L 92.614395 -83.574566 
L 95.297491 -89.0894 
L 97.980586 -90.896988 
L 100.663681 -94.818753 
L 103.346777 -93.480311 
L 106.029872 -98.777272 
L 108.712968 -107.912278 
L 111.396063 -119.090709 
L 114.079159 -122.497922 
L 116.762254 -128.312425 
L 119.445349 -128.334826 
L 122.128445 -126.749707 
L 124.81154 -121.390723 
L 127.494636 -124.15428 
L 130.177731 -127.701015 
L 132.860826 -139.069268 
L 135.543922 -143.212063 
L 138.227017 -151.678278 
L 140.910113 -152.930661 
L 143.593208 -155.481378 
L 146.276304 -154.142974 
L 148.959399 -153.674734 
L 151.642494 -161.936658 
L 154.32559 -161.589317 
L 157.008685 -159.261444 
L 159.691781 -147.993388 
L 162.374876 -147.171606 
L 165.057971 -141.59499 
L 167.741067 -137.000869 
L 170.424162 -140.86876 
L 173.107258 -149.345648 
L 175.790353 -163.784698 
L 178.473449 -165.710166 
L 181.156544 -160.842845 
L 183.839639 -159.462019 
L 186.522735 -156.886012 
L 189.20583 -161.500057 
L 191.888926 -159.989297 
L 194.572021 -169.397293 
L 197.255116 -173.299056 
L 199.477055 -169.895479 
L 199.938212 -174.46651 
L 202.621307 -166.886946 
L 205.304403 -174.925241 
L 207.987498 -177.105871 
L 210.670594 -173.422106 
L 213.353689 -180.832086 
L 216.036784 -181.006758 
L 218.71988 -173.825284 
L 221.402975 -172.771858 
L 224.086071 -170.937657 
L 226.769166 -178.158013 
L 229.452261 -186.689248 
L 232.135357 -190.280746 
L 234.818452 -198.772808 
L 237.501548 -200.985332 
L 240.184643 -209.022893 
L 242.867739 -204.127744 
L 245.550834 -203.896441 
L 248.233929 -205.499307 
L 250.917025 -203.909219 
L 253.60012 -202.91728 
L 256.283216 -205.654281 
L 258.966311 -210.051337 
L 261.649406 -208.343782 
L 264.332502 -210.115523 
L 267.015597 -209.420075 
L 269.698693 -208.008142 
L 272.381788 -204.954438 
L 275.064884 -211.176165 
L 277.747979 -207.170289 
L 280.431074 -201.474668 
L 283.11417 -201.15172 
L 285.797265 -207.447952 
L 288.480361 -208.902342 
L 291.163456 -214.195561 
L 293.846551 -220.848489 
L 296.529647 -215.43325 
L 299.212742 -212.384979 
L 301.895838 -214.304535 
L 304.578933 -218.072031 
L 307.262029 -215.271714 
L 309.945124 -203.523586 
L 312.628219 -202.898498 
L 315.311315 -212.260009 
L 317.99441 -215.510388 
L 320.677506 -219.371828 
L 323.360601 -220.920016 
L 326.043696 -227.761919 
L 328.726792 -224.366045 
L 330.487573 -226.198988 
L 331.409887 -205.693348 
L 334.092983 -209.14623 
L 336.776078 -209.870542 
L 339.459174 -211.133027 
L 342.142269 -214.079291 
L 344.825364 -217.786321 
L 347.50846 -219.730864 
L 350.191555 -203.450939 
L 352.874651 -194.801146 
L 355.557746 -175.273311 
L 358.240841 -178.721316 
L 360.923937 -187.954157 
L 363.607032 -169.08818 
L 366.290128 -173.220123 
L 368.973223 -188.924837 
L 371.656319 -190.438767 
L 374.339414 -186.176313 
L 377.022509 -200.548841 
L 379.705605 -202.674972 
L 382.3887 -196.849625 
L 385.071796 -188.871585 
L 387.754891 -198.597307 
L 390.437986 -201.916258 
L 393.121082 -210.776336 
L 395.804177 -219.259339 
L 398.487273 -228.325953 
L 398.487273 -287.770229 
L 398.487273 -287.770229 
L 395.804177 -287.645853 
L 393.121082 -290.349794 
L 390.437986 -292.032 
L 387.754891 -284.684196 
L 385.071796 -290.24238 
L 382.3887 -284.451351 
L 379.705605 -281.27442 
L 377.022509 -275.008475 
L 374.339414 -277.732334 
L 371.656319 -271.269254 
L 368.973223 -266.957994 
L 366.290128 -268.784208 
L 363.607032 -265.098141 
L 360.923937 -251.166515 
L 358.240841 -254.600065 
L 355.557746 -258.793712 
L 352.874651 -254.566969 
L 350.191555 -259.297945 
L 347.50846 -256.02429 
L 344.825364 -250.947348 
L 342.142269 -251.925866 
L 339.459174 -255.278351 
L 336.776078 -261.347606 
L 334.092983 -257.365159 
L 331.409887 -262.249178 
L 330.487573 -262.152382 
L 328.726792 -267.397572 
L 326.043696 -264.176566 
L 323.360601 -266.924318 
L 320.677506 -262.487216 
L 317.99441 -263.384849 
L 315.311315 -261.306434 
L 312.628219 -259.294617 
L 309.945124 -255.120502 
L 307.262029 -252.851452 
L 304.578933 -258.036977 
L 301.895838 -258.500859 
L 299.212742 -259.589998 
L 296.529647 -258.008437 
L 293.846551 -255.792028 
L 291.163456 -253.466135 
L 288.480361 -254.599151 
L 285.797265 -251.132397 
L 283.11417 -255.543565 
L 280.431074 -257.542223 
L 277.747979 -263.82411 
L 275.064884 -263.868759 
L 272.381788 -260.737509 
L 269.698693 -268.91443 
L 267.015597 -268.905908 
L 264.332502 -270.892006 
L 261.649406 -275.229457 
L 258.966311 -270.052628 
L 256.283216 -277.754139 
L 253.60012 -278.888228 
L 250.917025 -274.093095 
L 248.233929 -272.547553 
L 245.550834 -261.80168 
L 242.867739 -263.07013 
L 240.184643 -254.547041 
L 237.501548 -251.096533 
L 234.818452 -245.790394 
L 232.135357 -239.576183 
L 229.452261 -237.350104 
L 226.769166 -237.162187 
L 224.086071 -237.756396 
L 221.402975 -234.818404 
L 218.71988 -236.496923 
L 216.036784 -234.585441 
L 213.353689 -225.781878 
L 210.670594 -228.496875 
L 207.987498 -222.461483 
L 205.304403 -218.068612 
L 202.621307 -210.677505 
L 199.938212 -212.498353 
L 199.477055 -210.614988 
L 197.255116 -216.025999 
L 194.572021 -214.116989 
L 191.888926 -212.0554 
L 189.20583 -215.657776 
L 186.522735 -217.848645 
L 183.839639 -214.137361 
L 181.156544 -219.967758 
L 178.473449 -217.318712 
L 175.790353 -214.470035 
L 173.107258 -209.274595 
L 170.424162 -208.753657 
L 167.741067 -202.595864 
L 165.057971 -199.240925 
L 162.374876 -206.434167 
L 159.691781 -209.874472 
L 157.008685 -216.894252 
L 154.32559 -216.239101 
L 151.642494 -212.785863 
L 148.959399 -209.538385 
L 146.276304 -202.497476 
L 143.593208 -205.538286 
L 140.910113 -200.610759 
L 138.227017 -196.952537 
L 135.543922 -196.399683 
L 132.860826 -191.585069 
L 130.177731 -188.931929 
L 127.494636 -177.25375 
L 124.81154 -171.124314 
L 122.128445 -164.543083 
L 119.445349 -166.925563 
L 116.762254 -164.129056 
L 114.079159 -158.138273 
L 111.396063 -156.560555 
L 108.712968 -150.702514 
L 106.029872 -143.303955 
L 103.346777 -135.458658 
L 100.663681 -131.18497 
L 97.980586 -123.047794 
L 95.297491 -117.015534 
L 92.614395 -108.450081 
L 89.9313 -98.961701 
L 87.248204 -92.174131 
L 84.565109 -84.862683 
L 81.882014 -77.461872 
L 79.198918 -73.249653 
L 76.515823 -65.81284 
L 73.832727 -57.663373 
z
" style="stroke: #808080; stroke-opacity: 0.2"/>
    </defs>
    <g clip-path="url(#p4aeaeac6e0)">
     <use xlink:href="#m2678e08a06" x="0" y="345.6" style="fill: #808080; fill-opacity: 0.2; stroke: #808080; stroke-opacity: 0.2"/>
    </g>
   </g>
   <g id="matplotlib.axis_1">
    <g id="xtick_1">
     <g id="line2d_1">
      <defs>
       <path id="m7ff063cde1" d="M 0 0 
L 0 3.5 
" style="stroke: #000000; stroke-width: 0.8"/>
      </defs>
      <g>
       <use xlink:href="#m7ff063cde1" x="68.466536" y="307.584" style="stroke: #000000; stroke-width: 0.8"/>
      </g>
     </g>
     <g id="text_1">
      <!-- 0.00 -->
      <g transform="translate(57.333724 322.182437) scale(0.1 -0.1)">
       <defs>
        <path id="DejaVuSans-30" d="M 2034 4250 
Q 1547 4250 1301 3770 
Q 1056 3291 1056 2328 
Q 1056 1369 1301 889 
Q 1547 409 2034 409 
Q 2525 409 2770 889 
Q 3016 1369 3016 2328 
Q 3016 3291 2770 3770 
Q 2525 4250 2034 4250 
z
M 2034 4750 
Q 2819 4750 3233 4129 
Q 3647 3509 3647 2328 
Q 3647 1150 3233 529 
Q 2819 -91 2034 -91 
Q 1250 -91 836 529 
Q 422 1150 422 2328 
Q 422 3509 836 4129 
Q 1250 4750 2034 4750 
z
" transform="scale(0.015625)"/>
        <path id="DejaVuSans-2e" d="M 684 794 
L 1344 794 
L 1344 0 
L 684 0 
L 684 794 
z
" transform="scale(0.015625)"/>
       </defs>
       <use xlink:href="#DejaVuSans-30"/>
       <use xlink:href="#DejaVuSans-2e" x="63.623047"/>
       <use xlink:href="#DejaVuSans-30" x="95.410156"/>
       <use xlink:href="#DejaVuSans-30" x="159.033203"/>
      </g>
     </g>
    </g>
    <g id="xtick_2">
     <g id="line2d_2">
      <g>
       <use xlink:href="#m7ff063cde1" x="109.407323" y="307.584" style="stroke: #000000; stroke-width: 0.8"/>
      </g>
     </g>
     <g id="text_2">
      <!-- 0.25 -->
      <g transform="translate(98.274511 322.182437) scale(0.1 -0.1)">
       <defs>
        <path id="DejaVuSans-32" d="M 1228 531 
L 3431 531 
L 3431 0 
L 469 0 
L 469 531 
Q 828 903 1448 1529 
Q 2069 2156 2228 2338 
Q 2531 2678 2651 2914 
Q 2772 3150 2772 3378 
Q 2772 3750 2511 3984 
Q 2250 4219 1831 4219 
Q 1534 4219 1204 4116 
Q 875 4013 500 3803 
L 500 4441 
Q 881 4594 1212 4672 
Q 1544 4750 1819 4750 
Q 2544 4750 2975 4387 
Q 3406 4025 3406 3419 
Q 3406 3131 3298 2873 
Q 3191 2616 2906 2266 
Q 2828 2175 2409 1742 
Q 1991 1309 1228 531 
z
" transform="scale(0.015625)"/>
        <path id="DejaVuSans-35" d="M 691 4666 
L 3169 4666 
L 3169 4134 
L 1269 4134 
L 1269 2991 
Q 1406 3038 1543 3061 
Q 1681 3084 1819 3084 
Q 2600 3084 3056 2656 
Q 3513 2228 3513 1497 
Q 3513 744 3044 326 
Q 2575 -91 1722 -91 
Q 1428 -91 1123 -41 
Q 819 9 494 109 
L 494 744 
Q 775 591 1075 516 
Q 1375 441 1709 441 
Q 2250 441 2565 725 
Q 2881 1009 2881 1497 
Q 2881 1984 2565 2268 
Q 2250 2553 1709 2553 
Q 1456 2553 1204 2497 
Q 953 2441 691 2322 
L 691 4666 
z
" transform="scale(0.015625)"/>
       </defs>
       <use xlink:href="#DejaVuSans-30"/>
       <use xlink:href="#DejaVuSans-2e" x="63.623047"/>
       <use xlink:href="#DejaVuSans-32" x="95.410156"/>
       <use xlink:href="#DejaVuSans-35" x="159.033203"/>
      </g>
     </g>
    </g>
    <g id="xtick_3">
     <g id="line2d_3">
      <g>
       <use xlink:href="#m7ff063cde1" x="150.34811" y="307.584" style="stroke: #000000; stroke-width: 0.8"/>
      </g>
     </g>
     <g id="text_3">
      <!-- 0.50 -->
      <g transform="translate(139.215298 322.182437) scale(0.1 -0.1)">
       <use xlink:href="#DejaVuSans-30"/>
       <use xlink:href="#DejaVuSans-2e" x="63.623047"/>
       <use xlink:href="#DejaVuSans-35" x="95.410156"/>
       <use xlink:href="#DejaVuSans-30" x="159.033203"/>
      </g>
     </g>
    </g>
    <g id="xtick_4">
     <g id="line2d_4">
      <g>
       <use xlink:href="#m7ff063cde1" x="191.288897" y="307.584" style="stroke: #000000; stroke-width: 0.8"/>
      </g>
     </g>
     <g id="text_4">
      <!-- 0.75 -->
      <g transform="translate(180.156085 322.182437) scale(0.1 -0.1)">
       <defs>
        <path id="DejaVuSans-37" d="M 525 4666 
L 3525 4666 
L 3525 4397 
L 1831 0 
L 1172 0 
L 2766 4134 
L 525 4134 
L 525 4666 
z
" transform="scale(0.015625)"/>
       </defs>
       <use xlink:href="#DejaVuSans-30"/>
       <use xlink:href="#DejaVuSans-2e" x="63.623047"/>
       <use xlink:href="#DejaVuSans-37" x="95.410156"/>
       <use xlink:href="#DejaVuSans-35" x="159.033203"/>
      </g>
     </g>
    </g>
    <g id="xtick_5">
     <g id="line2d_5">
      <g>
       <use xlink:href="#m7ff063cde1" x="232.229684" y="307.584" style="stroke: #000000; stroke-width: 0.8"/>
      </g>
     </g>
     <g id="text_5">
      <!-- 1.00 -->
      <g transform="translate(221.096872 322.182437) scale(0.1 -0.1)">
       <defs>
        <path id="DejaVuSans-31" d="M 794 531 
L 1825 531 
L 1825 4091 
L 703 3866 
L 703 4441 
L 1819 4666 
L 2450 4666 
L 2450 531 
L 3481 531 
L 3481 0 
L 794 0 
L 794 531 
z
" transform="scale(0.015625)"/>
       </defs>
       <use xlink:href="#DejaVuSans-31"/>
       <use xlink:href="#DejaVuSans-2e" x="63.623047"/>
       <use xlink:href="#DejaVuSans-30" x="95.410156"/>
       <use xlink:href="#DejaVuSans-30" x="159.033203"/>
      </g>
     </g>
    </g>
    <g id="xtick_6">
     <g id="line2d_6">
      <g>
       <use xlink:href="#m7ff063cde1" x="273.170471" y="307.584" style="stroke: #000000; stroke-width: 0.8"/>
      </g>
     </g>
     <g id="text_6">
      <!-- 1.25 -->
      <g transform="translate(262.037659 322.182437) scale(0.1 -0.1)">
       <use xlink:href="#DejaVuSans-31"/>
       <use xlink:href="#DejaVuSans-2e" x="63.623047"/>
       <use xlink:href="#DejaVuSans-32" x="95.410156"/>
       <use xlink:href="#DejaVuSans-35" x="159.033203"/>
      </g>
     </g>
    </g>
    <g id="xtick_7">
     <g id="line2d_7">
      <g>
       <use xlink:href="#m7ff063cde1" x="314.111258" y="307.584" style="stroke: #000000; stroke-width: 0.8"/>
      </g>
     </g>
     <g id="text_7">
      <!-- 1.50 -->
      <g transform="translate(302.978446 322.182437) scale(0.1 -0.1)">
       <use xlink:href="#DejaVuSans-31"/>
       <use xlink:href="#DejaVuSans-2e" x="63.623047"/>
       <use xlink:href="#DejaVuSans-35" x="95.410156"/>
       <use xlink:href="#DejaVuSans-30" x="159.033203"/>
      </g>
     </g>
    </g>
    <g id="xtick_8">
     <g id="line2d_8">
      <g>
       <use xlink:href="#m7ff063cde1" x="355.052045" y="307.584" style="stroke: #000000; stroke-width: 0.8"/>
      </g>
     </g>
     <g id="text_8">
      <!-- 1.75 -->
      <g transform="translate(343.919233 322.182437) scale(0.1 -0.1)">
       <use xlink:href="#DejaVuSans-31"/>
       <use xlink:href="#DejaVuSans-2e" x="63.623047"/>
       <use xlink:href="#DejaVuSans-37" x="95.410156"/>
       <use xlink:href="#DejaVuSans-35" x="159.033203"/>
      </g>
     </g>
    </g>
    <g id="xtick_9">
     <g id="line2d_9">
      <g>
       <use xlink:href="#m7ff063cde1" x="395.992832" y="307.584" style="stroke: #000000; stroke-width: 0.8"/>
      </g>
     </g>
     <g id="text_9">
      <!-- 2.00 -->
      <g transform="translate(384.86002 322.182437) scale(0.1 -0.1)">
       <use xlink:href="#DejaVuSans-32"/>
       <use xlink:href="#DejaVuSans-2e" x="63.623047"/>
       <use xlink:href="#DejaVuSans-30" x="95.410156"/>
       <use xlink:href="#DejaVuSans-30" x="159.033203"/>
      </g>
     </g>
    </g>
    <g id="text_10">
     <!-- TimeSteps -->
     <g transform="translate(209.936562 335.860562) scale(0.1 -0.1)">
      <defs>
       <path id="DejaVuSans-54" d="M -19 4666 
L 3928 4666 
L 3928 4134 
L 2272 4134 
L 2272 0 
L 1638 0 
L 1638 4134 
L -19 4134 
L -19 4666 
z
" transform="scale(0.015625)"/>
       <path id="DejaVuSans-69" d="M 603 3500 
L 1178 3500 
L 1178 0 
L 603 0 
L 603 3500 
z
M 603 4863 
L 1178 4863 
L 1178 4134 
L 603 4134 
L 603 4863 
z
" transform="scale(0.015625)"/>
       <path id="DejaVuSans-6d" d="M 3328 2828 
Q 3544 3216 3844 3400 
Q 4144 3584 4550 3584 
Q 5097 3584 5394 3201 
Q 5691 2819 5691 2113 
L 5691 0 
L 5113 0 
L 5113 2094 
Q 5113 2597 4934 2840 
Q 4756 3084 4391 3084 
Q 3944 3084 3684 2787 
Q 3425 2491 3425 1978 
L 3425 0 
L 2847 0 
L 2847 2094 
Q 2847 2600 2669 2842 
Q 2491 3084 2119 3084 
Q 1678 3084 1418 2786 
Q 1159 2488 1159 1978 
L 1159 0 
L 581 0 
L 581 3500 
L 1159 3500 
L 1159 2956 
Q 1356 3278 1631 3431 
Q 1906 3584 2284 3584 
Q 2666 3584 2933 3390 
Q 3200 3197 3328 2828 
z
" transform="scale(0.015625)"/>
       <path id="DejaVuSans-65" d="M 3597 1894 
L 3597 1613 
L 953 1613 
Q 991 1019 1311 708 
Q 1631 397 2203 397 
Q 2534 397 2845 478 
Q 3156 559 3463 722 
L 3463 178 
Q 3153 47 2828 -22 
Q 2503 -91 2169 -91 
Q 1331 -91 842 396 
Q 353 884 353 1716 
Q 353 2575 817 3079 
Q 1281 3584 2069 3584 
Q 2775 3584 3186 3129 
Q 3597 2675 3597 1894 
z
M 3022 2063 
Q 3016 2534 2758 2815 
Q 2500 3097 2075 3097 
Q 1594 3097 1305 2825 
Q 1016 2553 972 2059 
L 3022 2063 
z
" transform="scale(0.015625)"/>
       <path id="DejaVuSans-53" d="M 3425 4513 
L 3425 3897 
Q 3066 4069 2747 4153 
Q 2428 4238 2131 4238 
Q 1616 4238 1336 4038 
Q 1056 3838 1056 3469 
Q 1056 3159 1242 3001 
Q 1428 2844 1947 2747 
L 2328 2669 
Q 3034 2534 3370 2195 
Q 3706 1856 3706 1288 
Q 3706 609 3251 259 
Q 2797 -91 1919 -91 
Q 1588 -91 1214 -16 
Q 841 59 441 206 
L 441 856 
Q 825 641 1194 531 
Q 1563 422 1919 422 
Q 2459 422 2753 634 
Q 3047 847 3047 1241 
Q 3047 1584 2836 1778 
Q 2625 1972 2144 2069 
L 1759 2144 
Q 1053 2284 737 2584 
Q 422 2884 422 3419 
Q 422 4038 858 4394 
Q 1294 4750 2059 4750 
Q 2388 4750 2728 4690 
Q 3069 4631 3425 4513 
z
" transform="scale(0.015625)"/>
       <path id="DejaVuSans-74" d="M 1172 4494 
L 1172 3500 
L 2356 3500 
L 2356 3053 
L 1172 3053 
L 1172 1153 
Q 1172 725 1289 603 
Q 1406 481 1766 481 
L 2356 481 
L 2356 0 
L 1766 0 
Q 1100 0 847 248 
Q 594 497 594 1153 
L 594 3053 
L 172 3053 
L 172 3500 
L 594 3500 
L 594 4494 
L 1172 4494 
z
" transform="scale(0.015625)"/>
       <path id="DejaVuSans-70" d="M 1159 525 
L 1159 -1331 
L 581 -1331 
L 581 3500 
L 1159 3500 
L 1159 2969 
Q 1341 3281 1617 3432 
Q 1894 3584 2278 3584 
Q 2916 3584 3314 3078 
Q 3713 2572 3713 1747 
Q 3713 922 3314 415 
Q 2916 -91 2278 -91 
Q 1894 -91 1617 61 
Q 1341 213 1159 525 
z
M 3116 1747 
Q 3116 2381 2855 2742 
Q 2594 3103 2138 3103 
Q 1681 3103 1420 2742 
Q 1159 2381 1159 1747 
Q 1159 1113 1420 752 
Q 1681 391 2138 391 
Q 2594 391 2855 752 
Q 3116 1113 3116 1747 
z
" transform="scale(0.015625)"/>
       <path id="DejaVuSans-73" d="M 2834 3397 
L 2834 2853 
Q 2591 2978 2328 3040 
Q 2066 3103 1784 3103 
Q 1356 3103 1142 2972 
Q 928 2841 928 2578 
Q 928 2378 1081 2264 
Q 1234 2150 1697 2047 
L 1894 2003 
Q 2506 1872 2764 1633 
Q 3022 1394 3022 966 
Q 3022 478 2636 193 
Q 2250 -91 1575 -91 
Q 1294 -91 989 -36 
Q 684 19 347 128 
L 347 722 
Q 666 556 975 473 
Q 1284 391 1588 391 
Q 1994 391 2212 530 
Q 2431 669 2431 922 
Q 2431 1156 2273 1281 
Q 2116 1406 1581 1522 
L 1381 1569 
Q 847 1681 609 1914 
Q 372 2147 372 2553 
Q 372 3047 722 3315 
Q 1072 3584 1716 3584 
Q 2034 3584 2315 3537 
Q 2597 3491 2834 3397 
z
" transform="scale(0.015625)"/>
      </defs>
      <use xlink:href="#DejaVuSans-54"/>
      <use xlink:href="#DejaVuSans-69" x="57.958984"/>
      <use xlink:href="#DejaVuSans-6d" x="85.742188"/>
      <use xlink:href="#DejaVuSans-65" x="183.154297"/>
      <use xlink:href="#DejaVuSans-53" x="244.677734"/>
      <use xlink:href="#DejaVuSans-74" x="308.154297"/>
      <use xlink:href="#DejaVuSans-65" x="347.363281"/>
      <use xlink:href="#DejaVuSans-70" x="408.886719"/>
      <use xlink:href="#DejaVuSans-73" x="472.363281"/>
     </g>
    </g>
    <g id="text_11">
     <!-- 1e6 -->
     <g transform="translate(395.841875 334.860562) scale(0.1 -0.1)">
      <defs>
       <path id="DejaVuSans-36" d="M 2113 2584 
Q 1688 2584 1439 2293 
Q 1191 2003 1191 1497 
Q 1191 994 1439 701 
Q 1688 409 2113 409 
Q 2538 409 2786 701 
Q 3034 994 3034 1497 
Q 3034 2003 2786 2293 
Q 2538 2584 2113 2584 
z
M 3366 4563 
L 3366 3988 
Q 3128 4100 2886 4159 
Q 2644 4219 2406 4219 
Q 1781 4219 1451 3797 
Q 1122 3375 1075 2522 
Q 1259 2794 1537 2939 
Q 1816 3084 2150 3084 
Q 2853 3084 3261 2657 
Q 3669 2231 3669 1497 
Q 3669 778 3244 343 
Q 2819 -91 2113 -91 
Q 1303 -91 875 529 
Q 447 1150 447 2328 
Q 447 3434 972 4092 
Q 1497 4750 2381 4750 
Q 2619 4750 2861 4703 
Q 3103 4656 3366 4563 
z
" transform="scale(0.015625)"/>
      </defs>
      <use xlink:href="#DejaVuSans-31"/>
      <use xlink:href="#DejaVuSans-65" x="63.623047"/>
      <use xlink:href="#DejaVuSans-36" x="125.146484"/>
     </g>
    </g>
   </g>
   <g id="matplotlib.axis_2">
    <g id="ytick_1">
     <g id="line2d_10">
      <defs>
       <path id="mee9a1cc6f0" d="M 0 0 
L -3.5 0 
" style="stroke: #000000; stroke-width: 0.8"/>
      </defs>
      <g>
       <use xlink:href="#mee9a1cc6f0" x="57.6" y="278.05686" style="stroke: #000000; stroke-width: 0.8"/>
      </g>
     </g>
     <g id="text_12">
      <!-- 2000 -->
      <g transform="translate(25.15 281.856078) scale(0.1 -0.1)">
       <use xlink:href="#DejaVuSans-32"/>
       <use xlink:href="#DejaVuSans-30" x="63.623047"/>
       <use xlink:href="#DejaVuSans-30" x="127.246094"/>
       <use xlink:href="#DejaVuSans-30" x="190.869141"/>
      </g>
     </g>
    </g>
    <g id="ytick_2">
     <g id="line2d_11">
      <g>
       <use xlink:href="#mee9a1cc6f0" x="57.6" y="224.712989" style="stroke: #000000; stroke-width: 0.8"/>
      </g>
     </g>
     <g id="text_13">
      <!-- 4000 -->
      <g transform="translate(25.15 228.512208) scale(0.1 -0.1)">
       <defs>
        <path id="DejaVuSans-34" d="M 2419 4116 
L 825 1625 
L 2419 1625 
L 2419 4116 
z
M 2253 4666 
L 3047 4666 
L 3047 1625 
L 3713 1625 
L 3713 1100 
L 3047 1100 
L 3047 0 
L 2419 0 
L 2419 1100 
L 313 1100 
L 313 1709 
L 2253 4666 
z
" transform="scale(0.015625)"/>
       </defs>
       <use xlink:href="#DejaVuSans-34"/>
       <use xlink:href="#DejaVuSans-30" x="63.623047"/>
       <use xlink:href="#DejaVuSans-30" x="127.246094"/>
       <use xlink:href="#DejaVuSans-30" x="190.869141"/>
      </g>
     </g>
    </g>
    <g id="ytick_3">
     <g id="line2d_12">
      <g>
       <use xlink:href="#mee9a1cc6f0" x="57.6" y="171.369119" style="stroke: #000000; stroke-width: 0.8"/>
      </g>
     </g>
     <g id="text_14">
      <!-- 6000 -->
      <g transform="translate(25.15 175.168337) scale(0.1 -0.1)">
       <use xlink:href="#DejaVuSans-36"/>
       <use xlink:href="#DejaVuSans-30" x="63.623047"/>
       <use xlink:href="#DejaVuSans-30" x="127.246094"/>
       <use xlink:href="#DejaVuSans-30" x="190.869141"/>
      </g>
     </g>
    </g>
    <g id="ytick_4">
     <g id="line2d_13">
      <g>
       <use xlink:href="#mee9a1cc6f0" x="57.6" y="118.025248" style="stroke: #000000; stroke-width: 0.8"/>
      </g>
     </g>
     <g id="text_15">
      <!-- 8000 -->
      <g transform="translate(25.15 121.824467) scale(0.1 -0.1)">
       <defs>
        <path id="DejaVuSans-38" d="M 2034 2216 
Q 1584 2216 1326 1975 
Q 1069 1734 1069 1313 
Q 1069 891 1326 650 
Q 1584 409 2034 409 
Q 2484 409 2743 651 
Q 3003 894 3003 1313 
Q 3003 1734 2745 1975 
Q 2488 2216 2034 2216 
z
M 1403 2484 
Q 997 2584 770 2862 
Q 544 3141 544 3541 
Q 544 4100 942 4425 
Q 1341 4750 2034 4750 
Q 2731 4750 3128 4425 
Q 3525 4100 3525 3541 
Q 3525 3141 3298 2862 
Q 3072 2584 2669 2484 
Q 3125 2378 3379 2068 
Q 3634 1759 3634 1313 
Q 3634 634 3220 271 
Q 2806 -91 2034 -91 
Q 1263 -91 848 271 
Q 434 634 434 1313 
Q 434 1759 690 2068 
Q 947 2378 1403 2484 
z
M 1172 3481 
Q 1172 3119 1398 2916 
Q 1625 2713 2034 2713 
Q 2441 2713 2670 2916 
Q 2900 3119 2900 3481 
Q 2900 3844 2670 4047 
Q 2441 4250 2034 4250 
Q 1625 4250 1398 4047 
Q 1172 3844 1172 3481 
z
" transform="scale(0.015625)"/>
       </defs>
       <use xlink:href="#DejaVuSans-38"/>
       <use xlink:href="#DejaVuSans-30" x="63.623047"/>
       <use xlink:href="#DejaVuSans-30" x="127.246094"/>
       <use xlink:href="#DejaVuSans-30" x="190.869141"/>
      </g>
     </g>
    </g>
    <g id="ytick_5">
     <g id="line2d_14">
      <g>
       <use xlink:href="#mee9a1cc6f0" x="57.6" y="64.681378" style="stroke: #000000; stroke-width: 0.8"/>
      </g>
     </g>
     <g id="text_16">
      <!-- 10000 -->
      <g transform="translate(18.7875 68.480596) scale(0.1 -0.1)">
       <use xlink:href="#DejaVuSans-31"/>
       <use xlink:href="#DejaVuSans-30" x="63.623047"/>
       <use xlink:href="#DejaVuSans-30" x="127.246094"/>
       <use xlink:href="#DejaVuSans-30" x="190.869141"/>
       <use xlink:href="#DejaVuSans-30" x="254.492188"/>
      </g>
     </g>
    </g>
    <g id="text_17">
     <!-- Moving Mean Reward -->
     <g transform="translate(12.707812 228.0155) rotate(-90) scale(0.1 -0.1)">
      <defs>
       <path id="DejaVuSans-4d" d="M 628 4666 
L 1569 4666 
L 2759 1491 
L 3956 4666 
L 4897 4666 
L 4897 0 
L 4281 0 
L 4281 4097 
L 3078 897 
L 2444 897 
L 1241 4097 
L 1241 0 
L 628 0 
L 628 4666 
z
" transform="scale(0.015625)"/>
       <path id="DejaVuSans-6f" d="M 1959 3097 
Q 1497 3097 1228 2736 
Q 959 2375 959 1747 
Q 959 1119 1226 758 
Q 1494 397 1959 397 
Q 2419 397 2687 759 
Q 2956 1122 2956 1747 
Q 2956 2369 2687 2733 
Q 2419 3097 1959 3097 
z
M 1959 3584 
Q 2709 3584 3137 3096 
Q 3566 2609 3566 1747 
Q 3566 888 3137 398 
Q 2709 -91 1959 -91 
Q 1206 -91 779 398 
Q 353 888 353 1747 
Q 353 2609 779 3096 
Q 1206 3584 1959 3584 
z
" transform="scale(0.015625)"/>
       <path id="DejaVuSans-76" d="M 191 3500 
L 800 3500 
L 1894 563 
L 2988 3500 
L 3597 3500 
L 2284 0 
L 1503 0 
L 191 3500 
z
" transform="scale(0.015625)"/>
       <path id="DejaVuSans-6e" d="M 3513 2113 
L 3513 0 
L 2938 0 
L 2938 2094 
Q 2938 2591 2744 2837 
Q 2550 3084 2163 3084 
Q 1697 3084 1428 2787 
Q 1159 2491 1159 1978 
L 1159 0 
L 581 0 
L 581 3500 
L 1159 3500 
L 1159 2956 
Q 1366 3272 1645 3428 
Q 1925 3584 2291 3584 
Q 2894 3584 3203 3211 
Q 3513 2838 3513 2113 
z
" transform="scale(0.015625)"/>
       <path id="DejaVuSans-67" d="M 2906 1791 
Q 2906 2416 2648 2759 
Q 2391 3103 1925 3103 
Q 1463 3103 1205 2759 
Q 947 2416 947 1791 
Q 947 1169 1205 825 
Q 1463 481 1925 481 
Q 2391 481 2648 825 
Q 2906 1169 2906 1791 
z
M 3481 434 
Q 3481 -459 3084 -895 
Q 2688 -1331 1869 -1331 
Q 1566 -1331 1297 -1286 
Q 1028 -1241 775 -1147 
L 775 -588 
Q 1028 -725 1275 -790 
Q 1522 -856 1778 -856 
Q 2344 -856 2625 -561 
Q 2906 -266 2906 331 
L 2906 616 
Q 2728 306 2450 153 
Q 2172 0 1784 0 
Q 1141 0 747 490 
Q 353 981 353 1791 
Q 353 2603 747 3093 
Q 1141 3584 1784 3584 
Q 2172 3584 2450 3431 
Q 2728 3278 2906 2969 
L 2906 3500 
L 3481 3500 
L 3481 434 
z
" transform="scale(0.015625)"/>
       <path id="DejaVuSans-20" transform="scale(0.015625)"/>
       <path id="DejaVuSans-61" d="M 2194 1759 
Q 1497 1759 1228 1600 
Q 959 1441 959 1056 
Q 959 750 1161 570 
Q 1363 391 1709 391 
Q 2188 391 2477 730 
Q 2766 1069 2766 1631 
L 2766 1759 
L 2194 1759 
z
M 3341 1997 
L 3341 0 
L 2766 0 
L 2766 531 
Q 2569 213 2275 61 
Q 1981 -91 1556 -91 
Q 1019 -91 701 211 
Q 384 513 384 1019 
Q 384 1609 779 1909 
Q 1175 2209 1959 2209 
L 2766 2209 
L 2766 2266 
Q 2766 2663 2505 2880 
Q 2244 3097 1772 3097 
Q 1472 3097 1187 3025 
Q 903 2953 641 2809 
L 641 3341 
Q 956 3463 1253 3523 
Q 1550 3584 1831 3584 
Q 2591 3584 2966 3190 
Q 3341 2797 3341 1997 
z
" transform="scale(0.015625)"/>
       <path id="DejaVuSans-52" d="M 2841 2188 
Q 3044 2119 3236 1894 
Q 3428 1669 3622 1275 
L 4263 0 
L 3584 0 
L 2988 1197 
Q 2756 1666 2539 1819 
Q 2322 1972 1947 1972 
L 1259 1972 
L 1259 0 
L 628 0 
L 628 4666 
L 2053 4666 
Q 2853 4666 3247 4331 
Q 3641 3997 3641 3322 
Q 3641 2881 3436 2590 
Q 3231 2300 2841 2188 
z
M 1259 4147 
L 1259 2491 
L 2053 2491 
Q 2509 2491 2742 2702 
Q 2975 2913 2975 3322 
Q 2975 3731 2742 3939 
Q 2509 4147 2053 4147 
L 1259 4147 
z
" transform="scale(0.015625)"/>
       <path id="DejaVuSans-77" d="M 269 3500 
L 844 3500 
L 1563 769 
L 2278 3500 
L 2956 3500 
L 3675 769 
L 4391 3500 
L 4966 3500 
L 4050 0 
L 3372 0 
L 2619 2869 
L 1863 0 
L 1184 0 
L 269 3500 
z
" transform="scale(0.015625)"/>
       <path id="DejaVuSans-72" d="M 2631 2963 
Q 2534 3019 2420 3045 
Q 2306 3072 2169 3072 
Q 1681 3072 1420 2755 
Q 1159 2438 1159 1844 
L 1159 0 
L 581 0 
L 581 3500 
L 1159 3500 
L 1159 2956 
Q 1341 3275 1631 3429 
Q 1922 3584 2338 3584 
Q 2397 3584 2469 3576 
Q 2541 3569 2628 3553 
L 2631 2963 
z
" transform="scale(0.015625)"/>
       <path id="DejaVuSans-64" d="M 2906 2969 
L 2906 4863 
L 3481 4863 
L 3481 0 
L 2906 0 
L 2906 525 
Q 2725 213 2448 61 
Q 2172 -91 1784 -91 
Q 1150 -91 751 415 
Q 353 922 353 1747 
Q 353 2572 751 3078 
Q 1150 3584 1784 3584 
Q 2172 3584 2448 3432 
Q 2725 3281 2906 2969 
z
M 947 1747 
Q 947 1113 1208 752 
Q 1469 391 1925 391 
Q 2381 391 2643 752 
Q 2906 1113 2906 1747 
Q 2906 2381 2643 2742 
Q 2381 3103 1925 3103 
Q 1469 3103 1208 2742 
Q 947 2381 947 1747 
z
" transform="scale(0.015625)"/>
      </defs>
      <use xlink:href="#DejaVuSans-4d"/>
      <use xlink:href="#DejaVuSans-6f" x="86.279297"/>
      <use xlink:href="#DejaVuSans-76" x="147.460938"/>
      <use xlink:href="#DejaVuSans-69" x="206.640625"/>
      <use xlink:href="#DejaVuSans-6e" x="234.423828"/>
      <use xlink:href="#DejaVuSans-67" x="297.802734"/>
      <use xlink:href="#DejaVuSans-20" x="361.279297"/>
      <use xlink:href="#DejaVuSans-4d" x="393.066406"/>
      <use xlink:href="#DejaVuSans-65" x="479.345703"/>
      <use xlink:href="#DejaVuSans-61" x="540.869141"/>
      <use xlink:href="#DejaVuSans-6e" x="602.148438"/>
      <use xlink:href="#DejaVuSans-20" x="665.527344"/>
      <use xlink:href="#DejaVuSans-52" x="697.314453"/>
      <use xlink:href="#DejaVuSans-65" x="762.296875"/>
      <use xlink:href="#DejaVuSans-77" x="823.820312"/>
      <use xlink:href="#DejaVuSans-61" x="905.607422"/>
      <use xlink:href="#DejaVuSans-72" x="966.886719"/>
      <use xlink:href="#DejaVuSans-64" x="1006.25"/>
     </g>
    </g>
   </g>
   <g id="line2d_15">
    <path d="M 73.832727 291.712313 
L 76.515823 284.88679 
L 79.198918 277.83733 
L 81.882014 274.843048 
L 84.565109 268.827174 
L 87.248204 264.820853 
L 89.9313 259.420382 
L 92.614395 249.587677 
L 95.297491 242.547533 
L 97.980586 238.627609 
L 100.663681 232.598138 
L 103.346777 231.130516 
L 106.029872 224.559386 
L 108.712968 216.292604 
L 111.396063 207.774368 
L 114.079159 205.281903 
L 116.762254 199.379259 
L 119.445349 197.969805 
L 122.128445 199.953605 
L 124.81154 199.342481 
L 127.494636 194.895985 
L 130.177731 187.283528 
L 132.860826 180.272831 
L 135.543922 175.794127 
L 138.227017 171.284592 
L 140.910113 168.82929 
L 143.593208 165.090168 
L 146.276304 167.279775 
L 148.959399 163.99344 
L 151.642494 158.238739 
L 154.32559 156.685791 
L 157.008685 157.522152 
L 159.691781 166.66607 
L 162.374876 168.797114 
L 165.057971 175.182042 
L 167.741067 175.801633 
L 170.424162 170.788792 
L 173.107258 166.289878 
L 175.790353 156.472634 
L 178.473449 154.085561 
L 181.156544 155.194698 
L 183.839639 158.80031 
L 186.522735 158.232672 
L 189.20583 157.021083 
L 191.888926 159.577651 
L 194.572021 153.842859 
L 197.255116 150.937473 
L 199.477055 155.344767 
L 199.938212 152.117569 
L 202.621307 156.817774 
L 205.304403 149.103073 
L 207.987498 145.816323 
L 210.670594 144.64051 
L 213.353689 142.293018 
L 216.036784 137.803901 
L 218.71988 140.438896 
L 221.402975 141.804869 
L 224.086071 141.252973 
L 226.769166 137.9399 
L 229.452261 133.580324 
L 232.135357 130.671536 
L 234.818452 123.318399 
L 237.501548 119.559068 
L 240.184643 113.815033 
L 242.867739 112.001063 
L 245.550834 112.750939 
L 248.233929 106.57657 
L 250.917025 106.598843 
L 253.60012 104.697246 
L 256.283216 103.89579 
L 258.966311 105.548017 
L 261.649406 103.81338 
L 264.332502 105.096235 
L 267.015597 106.437008 
L 269.698693 107.138714 
L 272.381788 112.754026 
L 275.064884 108.077538 
L 277.747979 110.102801 
L 280.431074 116.091554 
L 283.11417 117.252358 
L 285.797265 116.309825 
L 288.480361 113.849254 
L 291.163456 111.769152 
L 293.846551 107.279742 
L 296.529647 108.879157 
L 299.212742 109.612512 
L 301.895838 109.197303 
L 304.578933 107.545496 
L 307.262029 111.538417 
L 309.945124 116.277956 
L 312.628219 114.503442 
L 315.311315 108.816778 
L 317.99441 106.152381 
L 320.677506 104.670478 
L 323.360601 101.677833 
L 326.043696 99.630758 
L 328.726792 99.718192 
L 330.487573 101.424315 
L 331.409887 111.628737 
L 334.092983 112.344306 
L 336.776078 109.990926 
L 339.459174 112.394311 
L 342.142269 112.597421 
L 344.825364 111.233165 
L 347.50846 107.722423 
L 350.191555 114.225558 
L 352.874651 120.915943 
L 355.557746 128.566488 
L 358.240841 128.93931 
L 360.923937 126.039664 
L 363.607032 128.50684 
L 366.290128 124.597835 
L 368.973223 117.658585 
L 371.656319 114.745989 
L 374.339414 113.645677 
L 377.022509 107.821342 
L 379.705605 103.625304 
L 382.3887 104.949512 
L 385.071796 106.043018 
L 387.754891 103.959249 
L 390.437986 98.625871 
L 393.121082 95.036935 
L 395.804177 92.147404 
L 398.487273 87.551909 
" clip-path="url(#p4aeaeac6e0)" style="fill: none; stroke: #808080; stroke-width: 1.5; stroke-linecap: square"/>
   </g>
   <g id="line2d_16">
    <path d="M 73.832727 291.050085 
L 76.515823 281.174078 
L 79.198918 269.670302 
L 81.882014 268.754214 
L 84.565109 259.332393 
L 87.248204 253.982438 
L 89.9313 249.011063 
L 92.614395 234.842275 
L 95.297491 239.383204 
L 97.980586 245.159151 
L 100.663681 243.434821 
L 103.346777 251.212098 
L 106.029872 242.133644 
L 108.712968 217.489322 
L 111.396063 209.267359 
L 114.079159 204.39912 
L 116.762254 185.106403 
L 119.445349 185.473105 
L 122.128445 187.479384 
L 124.81154 185.550384 
L 127.494636 176.63271 
L 130.177731 182.060404 
L 132.860826 182.447635 
L 135.543922 177.240825 
L 138.227017 171.984398 
L 140.910113 160.854228 
L 143.593208 142.646592 
L 146.276304 158.975591 
L 148.959399 164.871873 
L 151.642494 158.721034 
L 154.32559 164.063105 
L 157.008685 173.20028 
L 159.691781 157.347496 
L 162.374876 145.207177 
L 165.057971 162.126573 
L 167.741067 168.112235 
L 170.424162 169.701576 
L 173.107258 183.870585 
L 175.790353 172.966554 
L 178.473449 159.628597 
L 181.156544 174.361024 
L 183.839639 168.629377 
L 186.522735 155.01667 
L 189.20583 160.647587 
L 191.888926 153.400689 
L 194.572021 160.808961 
L 197.255116 156.316012 
L 199.477055 157.793312 
L 199.938212 158.225749 
L 202.621307 154.562882 
L 205.304403 143.707335 
L 207.987498 129.00291 
L 210.670594 109.558376 
L 213.353689 133.365665 
L 216.036784 141.082824 
L 218.71988 156.618965 
L 221.402975 167.233502 
L 224.086071 175.22316 
L 226.769166 173.26767 
L 229.452261 145.515612 
L 232.135357 158.336091 
L 234.818452 153.978403 
L 237.501548 162.64599 
L 240.184643 153.523354 
L 242.867739 167.042965 
L 245.550834 152.395317 
L 248.233929 141.788537 
L 250.917025 134.093462 
L 253.60012 136.159481 
L 256.283216 129.590199 
L 258.966311 123.60347 
L 261.649406 136.225262 
L 264.332502 119.137433 
L 267.015597 100.240375 
L 269.698693 106.9154 
L 272.381788 118.080923 
L 275.064884 113.276203 
L 277.747979 147.447993 
L 280.431074 166.72096 
L 283.11417 170.464247 
L 285.797265 162.712369 
L 288.480361 165.821169 
L 291.163456 152.999773 
L 293.846551 144.395791 
L 296.529647 145.933934 
L 299.212742 145.284313 
L 301.895838 137.285914 
L 304.578933 125.352789 
L 307.262029 111.03224 
L 309.945124 119.80401 
L 312.628219 100.609755 
L 315.311315 109.606252 
L 317.99441 106.68018 
L 320.677506 101.137486 
L 323.360601 101.824768 
L 326.043696 97.304035 
L 328.726792 100.72311 
L 330.487573 100.24735 
L 331.409887 117.014801 
L 334.092983 125.012346 
L 336.776078 116.338235 
L 339.459174 122.332046 
L 342.142269 120.33332 
L 344.825364 108.696472 
L 347.50846 93.118515 
L 350.191555 84.229799 
L 352.874651 81.476482 
L 355.557746 85.119148 
L 358.240841 114.372807 
L 360.923937 126.744341 
L 363.607032 116.543249 
L 366.290128 135.372782 
L 368.973223 130.468719 
L 371.656319 132.16554 
L 374.339414 116.062372 
L 377.022509 115.063986 
L 379.705605 114.507521 
L 382.3887 107.301983 
L 385.071796 103.226592 
L 387.754891 96.208539 
L 390.437986 95.298706 
L 393.121082 93.795049 
L 395.804177 90.189216 
L 398.487273 87.190891 
" clip-path="url(#p4aeaeac6e0)" style="fill: none; stroke: #0000ff; stroke-width: 1.5; stroke-linecap: square"/>
   </g>
   <g id="patch_3">
    <path d="M 57.6 307.584 
L 57.6 41.472 
" style="fill: none; stroke: #000000; stroke-width: 0.8; stroke-linejoin: miter; stroke-linecap: square"/>
   </g>
   <g id="patch_4">
    <path d="M 414.72 307.584 
L 414.72 41.472 
" style="fill: none; stroke: #000000; stroke-width: 0.8; stroke-linejoin: miter; stroke-linecap: square"/>
   </g>
   <g id="patch_5">
    <path d="M 57.6 307.584 
L 414.72 307.584 
" style="fill: none; stroke: #000000; stroke-width: 0.8; stroke-linejoin: miter; stroke-linecap: square"/>
   </g>
   <g id="patch_6">
    <path d="M 57.6 41.472 
L 414.72 41.472 
" style="fill: none; stroke: #000000; stroke-width: 0.8; stroke-linejoin: miter; stroke-linecap: square"/>
   </g>
   <g id="legend_1">
    <g id="patch_7">
     <path d="M 244.930937 78.82825 
L 407.72 78.82825 
Q 409.72 78.82825 409.72 76.82825 
L 409.72 48.472 
Q 409.72 46.472 407.72 46.472 
L 244.930937 46.472 
Q 242.930937 46.472 242.930937 48.472 
L 242.930937 76.82825 
Q 242.930937 78.82825 244.930937 78.82825 
z
" style="fill: #ffffff; opacity: 0.8; stroke: #cccccc; stroke-linejoin: miter"/>
    </g>
    <g id="line2d_17">
     <path d="M 246.930937 54.570437 
L 256.930938 54.570437 
L 266.930938 54.570437 
" style="fill: none; stroke: #808080; stroke-width: 1.5; stroke-linecap: square"/>
    </g>
    <g id="text_18">
     <!-- Mean Performance -->
     <g transform="translate(274.930938 58.070437) scale(0.1 -0.1)">
      <defs>
       <path id="DejaVuSans-50" d="M 1259 4147 
L 1259 2394 
L 2053 2394 
Q 2494 2394 2734 2622 
Q 2975 2850 2975 3272 
Q 2975 3691 2734 3919 
Q 2494 4147 2053 4147 
L 1259 4147 
z
M 628 4666 
L 2053 4666 
Q 2838 4666 3239 4311 
Q 3641 3956 3641 3272 
Q 3641 2581 3239 2228 
Q 2838 1875 2053 1875 
L 1259 1875 
L 1259 0 
L 628 0 
L 628 4666 
z
" transform="scale(0.015625)"/>
       <path id="DejaVuSans-66" d="M 2375 4863 
L 2375 4384 
L 1825 4384 
Q 1516 4384 1395 4259 
Q 1275 4134 1275 3809 
L 1275 3500 
L 2222 3500 
L 2222 3053 
L 1275 3053 
L 1275 0 
L 697 0 
L 697 3053 
L 147 3053 
L 147 3500 
L 697 3500 
L 697 3744 
Q 697 4328 969 4595 
Q 1241 4863 1831 4863 
L 2375 4863 
z
" transform="scale(0.015625)"/>
       <path id="DejaVuSans-63" d="M 3122 3366 
L 3122 2828 
Q 2878 2963 2633 3030 
Q 2388 3097 2138 3097 
Q 1578 3097 1268 2742 
Q 959 2388 959 1747 
Q 959 1106 1268 751 
Q 1578 397 2138 397 
Q 2388 397 2633 464 
Q 2878 531 3122 666 
L 3122 134 
Q 2881 22 2623 -34 
Q 2366 -91 2075 -91 
Q 1284 -91 818 406 
Q 353 903 353 1747 
Q 353 2603 823 3093 
Q 1294 3584 2113 3584 
Q 2378 3584 2631 3529 
Q 2884 3475 3122 3366 
z
" transform="scale(0.015625)"/>
      </defs>
      <use xlink:href="#DejaVuSans-4d"/>
      <use xlink:href="#DejaVuSans-65" x="86.279297"/>
      <use xlink:href="#DejaVuSans-61" x="147.802734"/>
      <use xlink:href="#DejaVuSans-6e" x="209.082031"/>
      <use xlink:href="#DejaVuSans-20" x="272.460938"/>
      <use xlink:href="#DejaVuSans-50" x="304.248047"/>
      <use xlink:href="#DejaVuSans-65" x="360.925781"/>
      <use xlink:href="#DejaVuSans-72" x="422.449219"/>
      <use xlink:href="#DejaVuSans-66" x="463.5625"/>
      <use xlink:href="#DejaVuSans-6f" x="498.767578"/>
      <use xlink:href="#DejaVuSans-72" x="559.949219"/>
      <use xlink:href="#DejaVuSans-6d" x="599.3125"/>
      <use xlink:href="#DejaVuSans-61" x="696.724609"/>
      <use xlink:href="#DejaVuSans-6e" x="758.003906"/>
      <use xlink:href="#DejaVuSans-63" x="821.382812"/>
      <use xlink:href="#DejaVuSans-65" x="876.363281"/>
     </g>
    </g>
    <g id="line2d_18">
     <path d="M 246.930937 69.248562 
L 256.930938 69.248562 
L 266.930938 69.248562 
" style="fill: none; stroke: #0000ff; stroke-width: 1.5; stroke-linecap: square"/>
    </g>
    <g id="text_19">
     <!-- Bayesian Optimizer Trial 6 -->
     <g transform="translate(274.930938 72.748562) scale(0.1 -0.1)">
      <defs>
       <path id="DejaVuSans-42" d="M 1259 2228 
L 1259 519 
L 2272 519 
Q 2781 519 3026 730 
Q 3272 941 3272 1375 
Q 3272 1813 3026 2020 
Q 2781 2228 2272 2228 
L 1259 2228 
z
M 1259 4147 
L 1259 2741 
L 2194 2741 
Q 2656 2741 2882 2914 
Q 3109 3088 3109 3444 
Q 3109 3797 2882 3972 
Q 2656 4147 2194 4147 
L 1259 4147 
z
M 628 4666 
L 2241 4666 
Q 2963 4666 3353 4366 
Q 3744 4066 3744 3513 
Q 3744 3084 3544 2831 
Q 3344 2578 2956 2516 
Q 3422 2416 3680 2098 
Q 3938 1781 3938 1306 
Q 3938 681 3513 340 
Q 3088 0 2303 0 
L 628 0 
L 628 4666 
z
" transform="scale(0.015625)"/>
       <path id="DejaVuSans-79" d="M 2059 -325 
Q 1816 -950 1584 -1140 
Q 1353 -1331 966 -1331 
L 506 -1331 
L 506 -850 
L 844 -850 
Q 1081 -850 1212 -737 
Q 1344 -625 1503 -206 
L 1606 56 
L 191 3500 
L 800 3500 
L 1894 763 
L 2988 3500 
L 3597 3500 
L 2059 -325 
z
" transform="scale(0.015625)"/>
       <path id="DejaVuSans-4f" d="M 2522 4238 
Q 1834 4238 1429 3725 
Q 1025 3213 1025 2328 
Q 1025 1447 1429 934 
Q 1834 422 2522 422 
Q 3209 422 3611 934 
Q 4013 1447 4013 2328 
Q 4013 3213 3611 3725 
Q 3209 4238 2522 4238 
z
M 2522 4750 
Q 3503 4750 4090 4092 
Q 4678 3434 4678 2328 
Q 4678 1225 4090 567 
Q 3503 -91 2522 -91 
Q 1538 -91 948 565 
Q 359 1222 359 2328 
Q 359 3434 948 4092 
Q 1538 4750 2522 4750 
z
" transform="scale(0.015625)"/>
       <path id="DejaVuSans-7a" d="M 353 3500 
L 3084 3500 
L 3084 2975 
L 922 459 
L 3084 459 
L 3084 0 
L 275 0 
L 275 525 
L 2438 3041 
L 353 3041 
L 353 3500 
z
" transform="scale(0.015625)"/>
       <path id="DejaVuSans-6c" d="M 603 4863 
L 1178 4863 
L 1178 0 
L 603 0 
L 603 4863 
z
" transform="scale(0.015625)"/>
      </defs>
      <use xlink:href="#DejaVuSans-42"/>
      <use xlink:href="#DejaVuSans-61" x="68.603516"/>
      <use xlink:href="#DejaVuSans-79" x="129.882812"/>
      <use xlink:href="#DejaVuSans-65" x="189.0625"/>
      <use xlink:href="#DejaVuSans-73" x="250.585938"/>
      <use xlink:href="#DejaVuSans-69" x="302.685547"/>
      <use xlink:href="#DejaVuSans-61" x="330.46875"/>
      <use xlink:href="#DejaVuSans-6e" x="391.748047"/>
      <use xlink:href="#DejaVuSans-20" x="455.126953"/>
      <use xlink:href="#DejaVuSans-4f" x="486.914062"/>
      <use xlink:href="#DejaVuSans-70" x="565.625"/>
      <use xlink:href="#DejaVuSans-74" x="629.101562"/>
      <use xlink:href="#DejaVuSans-69" x="668.310547"/>
      <use xlink:href="#DejaVuSans-6d" x="696.09375"/>
      <use xlink:href="#DejaVuSans-69" x="793.505859"/>
      <use xlink:href="#DejaVuSans-7a" x="821.289062"/>
      <use xlink:href="#DejaVuSans-65" x="873.779297"/>
      <use xlink:href="#DejaVuSans-72" x="935.302734"/>
      <use xlink:href="#DejaVuSans-20" x="976.416016"/>
      <use xlink:href="#DejaVuSans-54" x="1008.203125"/>
      <use xlink:href="#DejaVuSans-72" x="1054.537109"/>
      <use xlink:href="#DejaVuSans-69" x="1095.650391"/>
      <use xlink:href="#DejaVuSans-61" x="1123.433594"/>
      <use xlink:href="#DejaVuSans-6c" x="1184.712891"/>
      <use xlink:href="#DejaVuSans-20" x="1212.496094"/>
      <use xlink:href="#DejaVuSans-36" x="1244.283203"/>
     </g>
    </g>
   </g>
  </g>
 </g>
 <defs>
  <clipPath id="p4aeaeac6e0">
   <rect x="57.6" y="41.472" width="357.12" height="266.112"/>
  </clipPath>
 </defs>
</svg>
